<?xml version="1.0" encoding="UTF-8"?>
<svg id="Layer_1" data-name="Layer 1" xmlns="http://www.w3.org/2000/svg" viewBox="0 0 50.52 113.54">
  <defs>
    <style>
      .cls-1, .cls-2 {
        stroke-width: 0px;
      }

      .cls-2 {
        fill: #fff;
      }

      .cls-3 {
        stroke-linecap: round;
        stroke-linejoin: round;
      }

      .cls-3, .cls-4 {
        stroke: #fff;
        stroke-width: .3px;
      }

      .cls-4 {
        stroke-miterlimit: 10;
      }
    </style>
  </defs>
  <path id="Head" class="cls-1" d="m22.34,0c.5.27,1.08.25,1.61.43,1.31.45,2.47,1.05,2.96,2.48.07.19.21.29.39.34,2.5.73,3.65,2.56,4.07,4.98.3,1.75.19,3.49-.24,5.22,0-.19,0-.39,0-.58,0-.22-.08-.41-.34-.4-.55.01-.7-.39-.83-.79-.27-.86-.42-1.75-.52-2.64-.09-.79-.42-1.29-1.25-1.42-.41-.06-.81-.21-1.22-.31-.59-.14-1.15-.06-1.66.3-1.26.91-2.66,1.54-4.14,2.01-.31.1-.46.29-.52.58-.09.49-.17.99-.27,1.47-.09.41-.23.78-.74.81-.31.02-.33.27-.31.49.1.96.05,1.98,1,2.63.11.08.15.27.21.42.17.4.26.87.52,1.21.84,1.11.65,2.37.63,3.62,0,.17-.05.32-.19.42-.64.47-1.32.95-2.13.78-1.36-.28-2.71-.12-4.06-.09-.42,0-.84,0-1.26.01-.53.03-.66-.23-.58-.7.1-.6.29-1.16.51-1.72.33-.84.64-1.68,1.01-2.5,1.12-2.51,1.12-5.13.72-7.77-.28-1.89-.28-3.73.41-5.55.77-2.04,2.33-3.07,4.34-3.55.19-.05.4-.03.57-.16h1.32Z"/>
  <path id="Right_Chest" data-name="Right Chest" class="cls-1" d="m24.92,31.47c.04.74.09,1.48-.01,2.22-.15,1.15-.96,1.84-2.12,1.84-.73,0-1.42-.19-2.11-.42-1.29-.44-2.49-1.08-3.69-1.73-.32-.18-.39-.38-.32-.73.26-1.24.63-2.44,1.23-3.56,1.31-2.43,3.71-3.4,6.36-2.61.39.12.41.38.43.68.08,1.44.16,2.87.23,4.31Z"/>
  <path id="Left_Chest" data-name="Left Chest" class="cls-1" d="m25.53,31.44c.09-1.44.19-2.87.25-4.31.02-.46.2-.61.61-.71,3.19-.79,5.3.71,6.46,3.26.43.95.72,1.95.92,2.97.05.25.08.47-.19.62-1.67.96-3.36,1.86-5.29,2.19-.57.1-1.17.14-1.69-.19-.61-.39-1.05-.9-1.09-1.69-.03-.72-.04-1.44,0-2.16Z"/>
  <path id="Right_Thigh" data-name="Right Thigh" class="cls-1" d="m19.8,78.62c-.96-.35-1.71-1.11-2.06-2.08-1.44-4.01-2.57-8.09-2.75-12.4-.06-1.44-.04-2.87.27-4.29.04-.18.1-.36.16-.54l.02-.05c.18-.45.24-.94.22-1.43-.08-1.76,0-3.52.35-5.27l1.2-2.06.08-.06c.21.11.19.3.24.46.61,2.06,1.5,4,2.44,5.93,1.19,2.43,2.18,4.95,2.91,7.54.53,1.86.65,3.83.76,5.77l-.02,2.43-.06.84c-.01.16,0,.32,0,.48.09,1.08.07,2.18-.06,3.29-.07.64-.26,1.25-.56,1.82-.17.32-.39.54-.8.47l-2.36-.86Z"/>
  <path id="Right_Leg" data-name="Right Leg" class="cls-1" d="m18.17,88.63c-.02-.8.24-1.36.35-2.23l3.92-.24c2.07,6.08,1.62,12.55-.37,18.36,0,0-1.39.47-1.55.05-.3-.78-.59-2.02-.85-2.82-.51-1.58-.91-3.18-1.48-4.74-.89-2.45-.82-4.98-.23-7.67l.19-.71Z"/>
  <path id="Right_Palm" data-name="Right Palm" class="cls-1" d="m6.06,54.75c-.04,1.16-.15,2.32-.72,3.36-.43.79-.8.84-1.42.19-.4-.42-.76-.87-1.26-1.19-.27-.17-.28-.4-.17-.68.44-1.09,1.17-1.99,1.91-2.88.38-.46.85-.08,1.28,0,.35.07.4.34.38.64,0,.18,0,.36,0,.54Z"/>
  <path id="Hip" class="cls-1" d="m22.13,60.61h0c-.38-.97-.99-2.52-1.38-3.49-.51-1.87-1.44-3.59-2.2-5.37-.14-.32-.35-.64-.39-.97l14.13.02c-.21.51-.4,1.03-.64,1.52-.73,1.49-1.33,3.03-1.92,4.58-.22.57-.2.69-.36,1.27-.05.2-.08.65-.29,1.01l-.46,1.23c-.65,1.14-1.4.8-2.71.87h-2.55c-.5.03-.98-.23-1.23-.67Z"/>
  <path id="Neck" class="cls-1" d="m27.58,20.63c.2.8.22,1.53-.13,2.22-.54,1.09-1.12,2.16-1.68,3.23-.06.12-.14.27-.3.24l-.68-.09c-.67-1.44-1.75-2.68-2.03-4.29-.07-.4-.05-.83.13-1.28l4.7-.02Z"/>
  <path id="Right_Hand" data-name="Right Hand" class="cls-1" d="m12.25,46.29c-1.27,2.35-3.08,4.26-5.04,6.03-.27.24-.55.47-.82.69-.09.07-.2.13-.3.2l-.94-.51c.28-1.08.8-2.04,1.23-3.05.75-1.76,1.21-3.64,2.03-5.38.66-1.4,1.35-2.77,2.47-3.86.29-.28.78-.99,1-.6l1.65,2.2c.3.25-1.08,3.92-1.27,4.29Z"/>
  <path id="Right_Knee" data-name="Right Knee" class="cls-1" d="m22.51,80.47c.55,1.56.23,3.06-.29,4.54-.36,1.04-1.7,1.33-2.45.51h0c-.6-.24-.78-.7-.84-1.3-.1-1.01-.2-2.01-.2-3.03,0-.15.07-.3.18-.4l.63-.57c.11-.31,1.02-.59,1.57-.49.32.06.53.2.6.46l.78.29Z"/>
  <path id="Left_Thigh" data-name="Left Thigh" class="cls-1" d="m30.67,78.62c.96-.35,1.71-1.11,2.06-2.08,1.44-4.01,2.57-8.09,2.75-12.4.06-1.44.04-2.87-.27-4.29-.04-.18-.1-.36-.16-.54l-.02-.05c-.18-.45-.24-.94-.22-1.43.08-1.76,0-3.52-.35-5.27l-1.2-2.06-.08-.06c-.21.11-.19.3-.24.46-.61,2.06-1.5,4-2.44,5.93-1.19,2.43-2.18,4.95-2.91,7.54-.53,1.86-.65,3.83-.76,5.77l.02,2.43.06.84c.01.16,0,.32,0,.48-.09,1.08-.07,2.18.06,3.29.07.64.26,1.25.56,1.82.17.32.39.54.8.47l2.36-.86Z"/>
  <path id="Left_Leg" data-name="Left Leg" class="cls-1" d="m32.31,88.63c.02-.8-.24-1.36-.35-2.23l-3.92-.24c-2.07,6.08-1.62,12.55.37,18.36,0,0,1.39.47,1.55.05.3-.78.59-2.02.85-2.82.51-1.58.91-3.18,1.48-4.74.89-2.45.82-4.98.23-7.67l-.19-.71Z"/>
  <path id="Left_Knee" data-name="Left Knee" class="cls-1" d="m27.97,80.47c-.55,1.56-.23,3.06.29,4.54.36,1.04,1.7,1.33,2.45.51h0c.6-.24.78-.7.84-1.3.1-1.01.2-2.01.2-3.03,0-.15-.07-.3-.18-.4l-.63-.57c-.11-.31-1.02-.59-1.57-.49-.32.06-.53.2-.6.46l-.78.29Z"/>
  <path id="Right_Middle_Finger" data-name="Right Middle Finger" class="cls-1" d="m1.17,62.03c.27-1.28.77-2.5,1.37-3.68.08-.16.2-.25.39-.17.18.07.21.22.18.4-.02.12-.04.24-.07.35-.35,1.13-.84,2.2-1.38,3.25-.07.14-.15.31-.35.24-.17-.06-.11-.23-.13-.39Z"/>
  <path id="Right_Arm" data-name="Right Arm" class="cls-1" d="m12.59,40.35c-.31-.1-.91-1.65-.92-1.9-.02-.48,0-.96,0-1.3-.05-1.62.22-3.02.95-4.34.61-1.1,3.12-3.65,4.04-3.64.44,0-.34,2.15-.32,2.61l-.33,4.2c-.02.37-.13.67-.26.96-.54,1.22-1.34,2.27-2.34,3.15-.12.11-.25.2-.39.28-.14.09-.31.14-.43-.02h0Z"/>
  <path id="Left_Arm" data-name="Left Arm" class="cls-1" d="m37.81,40.35c.31-.1.91-1.65.92-1.9.02-.48,0-.96,0-1.3.05-1.62-.22-3.02-.95-4.34-.61-1.1-3.12-3.65-4.04-3.64-.44,0,.34,2.15.32,2.61l.33,4.2c.02.37.13.67.26.96.54,1.22,1.34,2.27,2.34,3.15.12.11.25.2.39.28.14.09.31.14.43-.02h0Z"/>
  <path id="Right_Index_Finger" data-name="Right Index Finger" class="cls-1" d="m.53,60.62c.25-1.11.83-2.16,1.34-3.24.05-.11.14-.21.28-.12.15.1.32.23.24.43-.42,1.12-.81,2.25-1.45,3.27-.06.1-.15.22-.28.16-.19-.08-.1-.27-.13-.5Z"/>
  <path id="Right_Thumb_Finger" data-name="Right Thumb Finger" class="cls-1" d="m3.66,54.06c-.07.25-.23.46-.43.62-.8.67-1.72,1.16-2.61,1.69-.21.13-.45.11-.59-.1-.12-.18.07-.3.21-.36,1.08-.47,1.86-1.37,2.84-1.98.14-.08.25-.2.43-.13.1.04.15.13.14.25Z"/>
  <path id="Right_Ring_Finger" data-name="Right Ring Finger" class="cls-1" d="m2.34,62.34c-.23-.13-.26-.33-.16-.55.37-.88.75-1.77,1.13-2.64.06-.15.12-.38.38-.28.26.11.28.32.18.55-.21.5-.42.99-.64,1.48-.18.4-.38.79-.57,1.19-.06.12-.11.26-.31.25Z"/>
  <path id="Left_Neck" data-name="Left Neck" class="cls-1" d="m27.68,25.54c-.32,0-.6-.07-.52-.43.1-.44.52-2.37.98-2.61h0c.18-.24.44-.07.66.01.95.38,1.83.9,2.67,1.47.12.08.26.14.24.31-.03.2-.2.23-.36.26-.37.07-.75.13-.96.17l-2.71.81Z"/>
  <path id="Right_Neck" data-name="Right Neck" class="cls-1" d="m22.75,25.54c.32,0,.6-.07.52-.43-.1-.44-.52-2.37-.98-2.61h0c-.18-.24-.44-.07-.66.01-.95.38-1.83.9-2.67,1.47-.12.08-.26.14-.24.31.03.2.2.23.36.26.37.07.75.13.96.17l2.71.81Z"/>
  <path id="Right_Pinky_Finger" data-name="Right Pinky Finger" class="cls-1" d="m3.92,61.47c-.39-.44.15-1.73.9-2.34,0,.8-.23,1.74-.9,2.34Z"/>
  <path id="Left_Palm" data-name="Left Palm" class="cls-1" d="m44.45,54.71c.04,1.16.15,2.32.72,3.36.43.79.8.84,1.42.19.4-.42.76-.87,1.26-1.19.27-.17.28-.4.17-.68-.44-1.09-1.17-1.99-1.91-2.88-.38-.46-.85-.08-1.28,0-.35.07-.4.34-.38.64,0,.18,0,.36,0,.54Z"/>
  <path id="Left_Shoulder" data-name="Left Shoulder" class="cls-1" d="m37.11,29.86c.49-.56.68-1.33.59-2.07-.07-.62-.18-1.24-.39-1.84-.39-1.1-1.16-1.85-2.17-2.37,0,0-2.28-1.01-3,.48-.23.12-.06.36-.1.51.13.98.23,1.94.51,2.86.55,1.78,2.7.79,3.85,2.98,0,0,.33-.14.7-.55Z"/>
  <path id="Right_Shoulder" data-name="Right Shoulder" class="cls-1" d="m13.34,29.86c-.49-.56-.68-1.33-.59-2.07.07-.62.18-1.24.39-1.84.39-1.1,1.16-1.85,2.17-2.37,0,0,2.28-1.01,3,.48.23.12.06.36.1.51-.13.98-.23,1.94-.51,2.86-.55,1.78-2.7.79-3.85,2.98,0,0-.33-.14-.7-.55Z"/>
  <path id="Left_Hand" data-name="Left Hand" class="cls-1" d="m38.2,46.29c1.27,2.35,3.08,4.26,5.04,6.03.27.24.55.47.82.69.09.07.2.13.3.2l.94-.51c-.28-1.08-.8-2.04-1.23-3.05-.75-1.76-1.21-3.64-2.03-5.38-.66-1.4-1.35-2.77-2.47-3.86-.29-.28-.78-.99-1-.6l-1.65,2.2c-.3.25,1.08,3.92,1.27,4.29Z"/>
  <path id="Left_Middle_Finger" data-name="Left Middle Finger" class="cls-1" d="m49.35,61.99c-.27-1.28-.77-2.5-1.37-3.68-.08-.16-.2-.25-.39-.17-.18.07-.21.22-.18.4.02.12.04.24.07.35.35,1.13.84,2.2,1.38,3.25.07.14.15.31.35.24.17-.06.11-.23.13-.39Z"/>
  <path id="Left_Index_Finger" data-name="Left Index Finger" class="cls-1" d="m49.98,60.58c-.25-1.11-.83-2.16-1.34-3.24-.05-.11-.14-.21-.28-.12-.15.1-.32.23-.24.43.42,1.12.81,2.25,1.45,3.27.06.1.15.22.28.16.19-.08.1-.27.13-.5Z"/>
  <path id="Left_Thumb_Finger" data-name="Left Thumb Finger" class="cls-1" d="m46.85,54.02c.07.25.23.46.43.62.8.67,1.72,1.16,2.61,1.69.21.13.45.11.59-.1.12-.18-.07-.3-.21-.36-1.08-.47-1.86-1.37-2.84-1.98-.14-.08-.25-.2-.43-.13-.1.04-.15.13-.14.25Z"/>
  <path id="Left_Ring_Finger" data-name="Left Ring Finger" class="cls-1" d="m48.17,62.29c.23-.13.26-.33.16-.55-.37-.88-.75-1.77-1.13-2.64-.06-.15-.12-.38-.38-.28-.26.11-.28.32-.18.55.21.5.42.99.64,1.48.18.4.38.79.57,1.19.06.12.11.26.31.25Z"/>
  <path id="Left_Pinky_Finger" data-name="Left Pinky Finger" class="cls-1" d="m46.59,61.43c.39-.44-.15-1.73-.9-2.34,0,.8.23,1.74.9,2.34Z"/>
  <path id="Right_Ear" data-name="Right Ear" class="cls-4" d="m20.11,12.47s-.13.01-.13.01c-.04.02-.3.01-.43,0,0,0-.26.03-.23.39,0,0,.09,1.55.27,1.78,0,0,.16.41.46.71.5-1.03.33-2.18.06-2.89Z"/>
  <path id="Left_Ear" data-name="Left Ear" class="cls-4" d="m30.77,12.46s-.25.15-.47-.02c-.31.8-.68,2.25.22,3.36,0,0,0,0,0-.01,0,.02.3-.82.3-.82l.3-1.53s.12-1.24-.34-.98Z"/>
  <path id="Face" class="cls-3" d="m30.21,12.7c.06-.2.05-.42-.07-.6-.1-.14-.19-.35-.26-.63-.27-1.11-.43-2.25-.46-2.45-.03-.2-.08-1.29-1.25-1.42,0,0-1.02-.26-1.12-.28s-.9-.34-1.62.19c-.04.03-2.79,1.59-3.86,1.96-.07.11-.91.04-.97.89,0-.03-.29,1.51-.29,1.51,0,0,.05.61-.18.7.27.71.41,1.76-.09,2.79.05.05.09.1.14.13,0,0,.2.12.28.33,0,.01.37.99.37.99,0,0,.14.32.34.56.02.04.37.68.44,1.05.06.37.88,1.35,1.26,1.56.38.22,1.23.52,1.67.53s1.66-.01,2.48-.61,1.63-1.6,1.73-1.81c.1-.21,1.07-1.37,1.07-1.37,0,0,.57-.47.7-.94-.77-.96-.57-2.25-.3-3.1Z"/>
  <path id="Nose" class="cls-2" d="m26.07,14.18l-.7.7c-.07.07-.19.07-.26,0l-.7-.7c-.12-.12-.03-.32.13-.32h1.4c.17,0,.25.2.13.32Z"/>
  <path id="Stomach" class="cls-1" d="m32.73,48.82c.04.66.26.73-.24.95-.31.14-.67.25-.85.21l-12.66-.06c-.67-.23-.67-.84-.43-1.46,2.08-3.07-1.21-11.6-1.21-11.6-.3-.97.79-1.85,1.96-1.54,2.85.76,7.43,1.46,12.3.14,1.17-.32,2.28.57,1.96,1.55,0,0-4.06,9.53-.84,11.82Z"/>
  <path id="Right_Ring_Toe" data-name="Right Ring Toe" class="cls-1" d="m17.42,112.44c-.1.15-.15.32.06.41.25.11.19-.12.25-.24.16-.29.31-.47.51-.74-.14-.1-.26-.2-.37-.31-.14.38-.29.64-.46.88Z"/>
  <path id="Right_Pinky_Toe" data-name="Right Pinky Toe" class="cls-1" d="m17.58,111.19l-.23.35-.09.13c-.07.16-.16.25-.22.36-.06.14-.02.45.07.41.37-.12.44-.56.76-.88-.12-.12-.22-.24-.29-.36Z"/>
  <path id="Right_Middle_Toe" data-name="Right Middle Toe" class="cls-1" d="m18.04,112.37c-.09.11-.18.25-.19.4,0,.14.06.22.19.26.1.03.19.02.2-.1.05-.49.31-.39.51-.75-.19-.09-.36-.2-.51-.31-.02.22-.06.32-.21.5Z"/>
  <path id="Right_Big_Toe" data-name="Right Big Toe" class="cls-1" d="m19.63,112.51l-.25.47c-.14.26.05.57.34.57.32,0,.59-.14.81-.34.24-.21.48-.43.69-.67-.42.13-.99.13-1.59-.03Z"/>
  <path id="Right_Foot" data-name="Right Foot" class="cls-1" d="m22.87,109.1c-.24-.6-.35-1.2-.12-1.84.17-.46.1-.94-.12-1.35-.13-.26-.22-.52-.28-.79h-2.51c.1.67.18,1.36-.05,1.96-.46,1.2-.69,2.54-1.67,3.5-.05.05-.1.1-.13.16-.08.15-.3.29-.4.43l-.02.02c.07.12.17.25.29.36,0,0,0,0,0,0,0,0,0,0,0,0,.11.11.23.21.37.31,0,0,0,0,0,0,0,0,0,0,0,.01.15.11.33.21.51.31,0-.01.02-.03.02-.04,0,.02,0,.03,0,.05.14.07.29.14.45.2.03,0,.05.02.08.03.09-.02.2,0,.33.08h0c.61.17,1.18.18,1.59.05.34-.38.62-.8.75-1.33.06-.25.16-.47.41-.62.69-.42.79-.75.49-1.49Z"/>
  <path id="Right_Index_Toe" data-name="Right Index Toe" class="cls-1" d="m18.77,112.19c-.03.19-.11.23-.12.26-.06.07-.07.06-.11.14-.04.08-.07.16-.09.24-.07.28.19.53.46.46.04,0,.08-.02.12-.03h.01c0-.18,0-.36.02-.53.03-.19.11-.29.23-.32-.03,0-.05-.02-.08-.03-.16-.06-.31-.13-.45-.2Z"/>
  <path id="Left_Ring_Toe" data-name="Left Ring Toe" class="cls-1" d="m32.85,112.44c.1.15.15.32-.06.41-.25.11-.19-.12-.25-.24-.16-.29-.31-.47-.51-.74.14-.1.26-.2.37-.31.14.38.29.64.46.88Z"/>
  <path id="Left_Pinky_Toe" data-name="Left Pinky Toe" class="cls-1" d="m32.68,111.19l.23.35.09.13c.07.16.27.33.32.44.06.14-.09.37-.18.33-.37-.12-.44-.56-.76-.88.12-.12.22-.24.29-.36Z"/>
  <path id="Left_Middle_Toe" data-name="Left Middle Toe" class="cls-1" d="m32.22,112.37c.09.11.18.25.19.4,0,.14-.06.22-.19.26-.1.03-.19.02-.2-.1-.05-.49-.31-.39-.51-.75.19-.09.36-.2.51-.31.02.22.06.32.21.5Z"/>
  <path id="Left_Big_Toe" data-name="Left Big Toe" class="cls-1" d="m30.63,112.51l.25.47c.14.26-.05.57-.34.57-.32,0-.59-.14-.81-.34-.24-.21-.48-.43-.69-.67.42.13.99.13,1.59-.03Z"/>
  <path id="Left_Foot" data-name="Left Foot" class="cls-1" d="m27.39,109.1c.24-.6.35-1.2.12-1.84-.17-.46-.1-.94.12-1.35.13-.26.22-.52.28-.79h2.51c-.1.67-.18,1.36.05,1.96.46,1.2.69,2.54,1.67,3.5.05.05.1.1.13.16.08.15.3.29.4.43l.02.02c-.07.12-.17.25-.29.36,0,0,0,0,0,0,0,0,0,0,0,0-.11.11-.23.21-.37.31,0,0,0,0,0,0,0,0,0,0,0,.01-.15.11-.33.21-.51.31,0-.01-.02-.03-.02-.04,0,.02,0,.03,0,.05-.14.07-.29.14-.45.2-.03,0-.05.02-.08.03-.09-.02-.2,0-.33.08h0c-.61.17-1.18.18-1.59.05-.34-.38-.62-.8-.75-1.33-.06-.25-.16-.47-.41-.62-.69-.42-.79-.75-.49-1.49Z"/>
  <path id="Left_Index_Toe" data-name="Left Index Toe" class="cls-1" d="m31.49,112.19c.03.19.11.23.12.26.06.07.07.06.11.14.04.08.07.16.09.24.07.28-.19.53-.46.46-.04,0-.08-.02-.12-.03h-.01c0-.18,0-.36-.02-.53-.03-.19-.11-.29-.23-.32.03,0,.05-.02.08-.03.16-.06.31-.13.45-.2Z"/>
</svg>