<?xml version="1.0" encoding="UTF-8"?>
<svg id="Layer_1" data-name="Layer 1" xmlns="http://www.w3.org/2000/svg" viewBox="0 0 137.79 442.1">
  <defs>
    <style>
      .cls-1 {
        fill: #55c1f0;
        stroke-width: 0px;
      }
    </style>
  </defs>
  <path class="cls-1" d="m37.09,121.93c-.49,4.52-.95,8.52-1.36,12.53-.25,2.45-.5,4.91-.58,7.37-.19,6.07.02,12.17-.5,18.21-.41,4.74-1.33,9.45-2.58,14.12-1.34,5.01-3.74,9.57-5.22,14.48-1.59,5.27-3.51,10.42-4.98,15.74-.89,3.23-1.98,6.4-2.59,9.72-.4,2.18-.62,4.21.12,6.39.67,1.99.9,4.1.86,6.24-.08,4.47-.02,8.95-.02,13.43,0,.48.04.98-.03,1.45-.14.92-.35,1.89-1.53,1.9-1.19.02-1.4-.96-1.57-1.87-.07-.35-.03-.72-.03-1.09,0-1.51,0-3.01,0-4.48-.64,1.52-.36,3.16-.48,4.77-.06.83-.2,1.69-.5,2.47-.25.67-.37,1.73-1.43,1.57-1-.16-1.23-1.02-1.23-1.94,0-1.57,0-3.15,0-4.74-.62,1.05-.5,2.21-.43,3.32.1,1.51-.53,2.84-.88,4.23-.15.59-.65,1.04-1.36.99-.66-.05-.84-.58-1.02-1.11-.49-1.42-.43-2.87-.15-4.29.15-.79.17-1.55.22-2.39-.87,1.49-.15,3.13-.65,4.62-.3.91-.37,2.13-1.62,2.06-1.35-.08-1.41-1.29-1.37-2.35.15-4.04-.35-8.09.33-12.12.06-.33.12-.73-.2-1.03-.61-.1-.62.47-.81.78-.64,1.05-1.45,1.94-2.53,2.52-.84.45-1.78.61-2.55-.04-.8-.67-.25-1.58.1-2.16,2.18-3.63,3.35-7.81,6.58-10.91,2.05-1.96,2.87-4.76,3.12-7.72.43-5.03,1.15-10.03,1.68-15.06.56-5.33,1.04-10.67,1.54-16.01.45-4.79,1.21-9.54,2.29-14.23,1.35-5.84,3.41-11.54,3.45-17.61.03-3.67-.29-7.34-.47-11.02-.02-.42-.17-.83-.17-1.25-.08-8.34-.71-16.67-.35-25.01.36-8.19,1.26-16.3,3.67-24.21,2.3-7.52,7.18-12.24,14.76-14.02,5.56-1.3,5.45-3.81,2.04-6.82-1.91-1.68-2.02-3.98-1.29-6.35.85-2.72,2.13-5.24,3.36-7.79,1.77-3.65,1.58-7.54,1.74-11.8-1.7,1.75-1.93,3.87-3.51,5.81-.16-1.95.53-3.31.81-4.67,1.1-5.2,1.73-10.42,2.03-15.73.47-8.2,3.16-15.7,9.81-20.93C56.16,2.39,61.5.42,67.46.05c8.23-.51,14.96,2.75,20.85,7.92,3.63,3.19,5.62,7.55,6.75,12.33,1.06,4.49.85,9.1,1.73,13.6.7,3.56,2.09,6.92,2.93,10.43.76,3.17,1.21,6.37.04,9.61-.53-4.32-1.24-8.56-4.16-12.55-.51,3.03-.09,5.6.32,8.15.33,2.05,1.16,3.93,2.14,5.72.72,1.32,1.02,2.67.96,4.16-.05,1.23-.2,2.29-1.21,3.23-3.04,2.84-1.91,6.98-.65,9.88.28.65.93.78,1.6.99,3.73,1.16,7.45,2.23,10.69,4.67,3.01,2.28,4.56,5.33,5.8,8.69,1.78,4.81,2.93,9.77,3.47,14.87.25,2.33.47,4.67.57,7.01.18,4.27.51,8.55.31,12.8-.35,7.46-.35,14.94-.93,22.4-.49,6.29.23,12.46,2.16,18.54,1.21,3.82,1.75,7.86,2.45,11.82,1.15,6.52,1.47,13.15,2.28,19.71.87,7.04.83,14.18,2.44,21.13.48,2.06,1.5,3.7,3.02,5.31,1.53,1.62,2.78,3.69,3.67,5.84.74,1.79,1.64,3.49,2.62,5.15.32.55.77,1.19.23,1.84-.55.66-1.31.49-2.02.31-1.97-.51-2.84-2.31-4.33-3.75.22,4.27.66,8.34.47,12.43-.03.72,0,1.44-.26,2.15-.25.66-.46,1.27-1.31,1.25-.87-.02-1.05-.67-1.22-1.33-.07-.28-.68-4.97-.83-5.65-.26,1.1.16,6.21-.05,6.91-.18.57-.36,1.16-1.15,1.21-.72.04-.92-.49-1.15-.97-.45-.93-.89-1.87-.82-2.93.11-1.58-.35-3.08-.6-4.62.2,1.56.14,3.12.13,4.67,0,.93-.27,1.76-1.27,1.91-1.03.15-1.31-.77-1.47-1.51-.35-1.58-.58-3.19-.82-4.59-.09,1-.25,2.2-.27,3.4-.02.76-.41,1.13-1.02,1.29-.73.2-1.31-.11-1.6-.83-.13-.33-.28-.68-.31-1.03-.58-6.51-.78-13.08.46-19.46.97-4.99.14-9.51-1.12-14.2-1.92-7.14-4.25-14.16-6.79-21.09-1.11-3.04-2.19-6.09-3.34-9.12-1.78-4.68-2.63-9.57-3.46-14.49-1.03-6.14-.34-12.3-.72-18.44-.32-5.16-.3-10.34-1.29-15.46-.39-2.04-.35-4.19-.85-6.37-.64,2.55-1.39,4.97-1.8,7.44-.25,1.5-1.11,2.65-1.54,4.02-1.61,5.01-2.85,10.08-3.34,15.36-.29,3.14-.06,6.28-.32,9.4-.3,3.62.99,6.65,3.17,9.33,2.55,3.14,4.63,6.64,6.67,10.05,2.02,3.39,3.45,7.25,4.95,10.99,1.49,3.7,2.54,7.51,3.45,11.34.9,3.78,1.43,7.68,1.68,11.56.26,4.09.74,8.19.42,12.3-.32,4.08-.66,8.15-1.21,12.21-1.21,8.98-3.34,17.72-5.91,26.39-1.52,5.13-2.73,10.34-4.24,15.47-2.53,8.61-3.15,17.41-2.73,26.3.15,3.17.79,6.32,1.15,9.49.25,2.21.56,4.43.59,6.65.08,5.93.17,11.86,0,17.78-.22,7.52-.76,15.02-2.06,22.46-1.07,6.13-2.94,12.03-4.9,17.91-1.98,5.92-4.4,11.72-5.46,17.91-.48,2.78-1.09,5.56-.97,8.42.16,3.93-.39,7.83-.45,11.76-.04,2.87,1.12,5.26,1.98,7.8,1.2,3.53,3.66,5.97,6.85,7.78.77.44,1.41,1.12,2.09,1.71.66.57,1.08,1.28,1.12,2.19.05,1.14-2.43-.12-1.55,1.59-1.18,1.06-3.02-.31-4.56,1.16-1.45,1.38-3.86.03-4.44,1.69-1.76.45-3.35.9-5-.19-.13-.09-.45.06-.67.14-3.58,1.33-6.74.06-8.19-3.4-.45-1.08-1.33-1.7-2.12-2.41-2.24-2-2.76-3.44-1.64-6.19,1.69-4.15,2.93-8.39,3.3-12.87.31-3.71.74-7.42,1-11.14.35-4.87.28-9.76,0-14.63-.29-4.99-1.02-9.93-1.99-14.83-1.76-8.8-3.41-17.62-3.06-26.66.2-4.99.91-9.93,1.72-14.86.89-5.45,1.81-10.91,1.93-16.47.16-7.79-.24-15.58-.48-23.36-.21-6.71-1.35-13.37-2.17-20.05-.59-4.83-1.3-9.64-1.82-14.48-.47-4.38-.77-8.78-.83-13.15-.04-3.34-.11-6.76.39-10.1.16-1.09.14-2.17.13-3.25,0-.63-.16-1.35-.91-1.32-.74.04-.59.81-.58,1.31.1,4.4.39,8.8.38,13.21,0,7.01-.84,13.93-1.76,20.86-.84,6.38-1.51,12.78-2.29,19.17-.9,7.32-.75,14.69-1.18,22.02-.38,6.49-.07,12.89.9,19.26.68,4.45,1.4,8.9,2.06,13.36.58,3.94.45,7.9.48,11.86.04,4.61-.49,9.15-1.17,13.67-.52,3.45-1.17,6.88-1.93,10.28-.94,4.19-1.1,8.46-1.68,12.69-.44,3.24-.4,6.5-.36,9.76.09,5.91.9,11.76,1.31,17.64.31,4.45,1.95,8.41,3.38,12.49.85,2.41.33,4.42-1.77,5.78-.91.59-1.47,1.26-1.88,2.28-1.47,3.65-4.57,4.41-8.34,2.96-.7-.27-1.17.56-1.69.83-1.06.55-2.12.63-3.06-.14-.51-.42-.74-.88-1.29-.78-1.1.19-2.55.87-3.52.19-.33-.23-.37-1.4-.71-1.32-1.39,1.58-4.8.28-3.98-.56.88-.89-.85-.46-1.27-.71-1.22-.73-.9-2.67.59-3.81,1.29-.99,2.63-1.92,3.99-2.81,3.09-2.01,4.28-5.26,5.59-8.44,1.42-3.47,1.32-7.08.89-10.69-.3-2.52-.36-5.08-.38-7.57-.08-6.83-1.95-13.21-4.18-19.5-2.08-5.89-3.95-11.84-5.71-17.83-1.54-5.27-2.03-10.73-2.59-16.17-.75-7.38-1.15-14.79-1.07-22.2.09-8.02.78-15.98,2.01-23.91.57-3.68.39-7.5.03-11.23-.8-8.49-3.07-16.67-5.45-24.82-2.99-10.24-5.72-20.55-7.35-31.1-1.14-7.41-1.71-14.89-1.14-22.37.41-5.38,1-10.74,2.25-16.06,1.19-5.03,2.83-9.82,4.88-14.53,2.13-4.9,4.77-9.46,7.85-13.85,1.53-2.18,3.17-4.35,4.4-6.73.89-1.72.82-3.77.79-5.66-.11-6.26-.26-12.54-1.81-18.65-.63-2.5-1.58-4.93-2.48-7.35-1.29-3.45-2.05-7.03-2.85-11.13Z"/>
</svg>