<?xml version="1.0" encoding="UTF-8"?>
<svg id="Layer_1" data-name="Layer 1" xmlns="http://www.w3.org/2000/svg" viewBox="0 0 323.34 583.22">
  <defs>
    <style>
      .cls-1 {
        stroke-width: 0px;
        fill:blue;
      }

      .cls-3 {
        stroke-width: .5px;
      }

      .cls-3, .cls-4 {
        stroke: #fff;
        stroke-miterlimit: 10;
      }

      .cls-1:hover{
      cursor:pointer;
      fill:red;
      }

       <!--  path {
            transition: fill 0.3s;
        }
        path:hover {
            fill: red;
        } -->

    </style>


  </defs>
  <path id="Left_Chest" data-name="Left Chest" class="cls-1" d="m161.18,150.11c-2.01-15.08-.12-29.72,6.56-43.54.84-1.74,2.77-3.93,4.43-4.15,9.03-1.2,18.12-1.94,27.21-2.55.92-.06,2.28,1.59,2.92,2.73,4.34,7.85,8.6,15.74,12.73,23.69.7,1.34,1.39,3.38.87,4.56-3.7,8.48-7.61,16.87-11.68,25.19-1.78,3.65-5.13,4.82-9.15,4.82-6.87,0-13.36-.36-19.48-4.51-4.29-2.91-9.64-4.24-14.41-6.23Z"/>
  <path id="Right_Chest" data-name="Right Chest" class="cls-1" d="m158,149.93c-6.01,3.05-11.89,6.11-17.84,9.01-7.26,3.55-18.22.61-22.8-6.09-1.87-2.74-3.59-5.6-5.27-8.47-5.04-8.63-8.02-16.95-.4-26.21,3.35-4.07,4.48-9.93,6.82-14.88.6-1.27,2.03-3.13,2.99-3.09,8.45.43,16.9,1,25.28,2.1,1.82.24,4.02,2.43,4.88,4.27,6.52,13.9,8.1,28.6,6.32,43.35Z"/>
  <path id="Right_Arm" data-name="Right Arm" class="cls-1" d="m103.35,133.4c.53,13.91.38,27.76-4.45,41.15-1.07,2.97-2.55,5.89-3.03,8.96-2.37,15.14-14.56,18.07-26.03,22.14-7.82-19.1-.62-35.01,8.91-50.41.98-1.58,3.17-2.37,4.65-3.7,6.62-5.95,13.18-11.97,19.96-18.14Z"/>
  <path id="Left_Arm" data-name="Left Arm" class="cls-1" d="m218.91,132.03c6.94,9.4,16.17,15.18,23.22,22.61,6.51,6.85,11.31,16.71,13.46,27.2,1.79,8.72-2.18,15.83-3.5,23.54-7.19-3.92-14.44-7.84-21.63-11.87-.94-.53-2.04-1.45-2.31-2.41-3.16-10.94-7-21.78-8.96-32.94-1.41-8.03-.27-16.51-.27-26.13Z"/>
  <path id="Hip" class="cls-1" d="m192.47,228.42l10.17-3.38c1.87-.62,3.84.64,4.05,2.6.72,6.66,1.44,13.25,2.11,19.83.29,2.83-1.4,6.49-3.69,8.16-13.13,9.59-23.93,21.44-33.72,34.61-1.15,1.55-2.94,2.51-4.88,2.57l-14.14.46c-2.07.07-4.04-.89-5.28-2.55-4.38-5.89-8.34-11.6-12.97-16.7-6.58-7.23-13.92-13.75-20.89-20.63-.88-.87-2.2-2.04-2.15-3,.39-6.66.89-13.31,1.4-19.78.34-4.31,4.81-7.01,8.78-5.31,3.49,1.5,6.91,2.98,10.31,4.53"/>
  <path id="Left_Shoulder" data-name="Left Shoulder" class="cls-1" d="m204.03,97.47c7.59,2.22,15.31,4.06,22.72,6.78,7.3,2.68,12.24,8.01,13.32,16.05,1.37,10.18,2.49,20.4,3.09,30.88-20.8-11.93-30.15-32.27-40.12-52.15.33-.52.66-1.04.99-1.55Z"/>
  <path id="Left_Hand" data-name="Left Hand" class="cls-1" d="m286.9,270.46c-2.36,1.49-4.14,2.62-6.18,3.91-1.69-2.97-2.85-5.98-4.82-8.32-5.75-6.81-11.73-13.45-17.8-19.97-6.56-7.04-13.8-13.5-19.89-20.91-7.27-8.84-6.33-20.69-9.91-30.89,6.58,4.08,13.21,8.08,19.74,12.23,1.61,1.03,3.61,1.24,5.4.56h0c.45-.17.76-.57.83-1.05.61-4.26,2.21-8.63,4.12-13.05,8.75,8.6,15.06,17.53,18.61,28.42,4.89,14.97,10.1,29.83,15.38,45.33-.6.41-1.89,1.3-4.37,3"/>
  <path id="Right_Shoulder" data-name="Right Shoulder" class="cls-1" d="m79.24,150.79c-.09-13.38-.56-26.52,6.67-38.22,4.39-7.11,11.86-9.87,19.67-11.46,3.51-.72,7.15-.85,10.86-1.26-2.4,16.39-22.75,44.33-37.2,50.94Z"/>
  <path id="Neck" class="cls-1" d="m180.15,68.24c-1.11,3.59-1.48,7.49-2.9,10.96-5.07,12.42-10.38,24.74-15.58,37.11-.63,1.49-1.1,3.05-2.22,4.66-5.14-17.32-13.4-33.53-16.87-52.01,12.66,9.08,24.71,10.89,36.8-1.18l.77.47Z"/>
  <path id="Right_Hand" data-name="Right Hand" class="cls-1" d="m33.95,268.53c-.05-.05-.12-.09-.19-.11-4.48-1.28-4.65-3.52-2.59-7.02,2.86-4.86,5.62-9.83,7.79-15.02,2.42-5.77,4.99-11.7,5.97-17.81,2.17-13.56,9.24-24.18,18.51-34.56.23-.25.65-.18.78.13,2.12,5.21,2.72,10.31,2.15,15.31-.04.35.3.61.63.48l1.66-.7c7.75-3.59,14.69-6.81,22.27-10.32.34-.16.72.14.65.51-2.96,14.7-6.96,28.83-20.21,37.32-12.18,7.8-19.52,19.17-26.9,30.81-.62.98-1.04,2.08-1.59,3.1-.46.88-.95,1.74-1.55,2.82-.13.24-.45.31-.67.16-1.68-1.14-3.17-2.15-4.67-3.17-.02-.01-.04-.03-.06-.05l-1.98-1.9Z"/>
  <path id="Right_Thigh" data-name="Right Thigh" class="cls-1" d="m148.32,343.19s0-.06,0-.09c-1.29-7.52,4.13-20.53,5.23-28.69.17-1.27-3.43-12.08-4.22-13.21-6.76-9.67-9.03-15.59-16.26-24.9-4.84-6.24-10.67-11.71-16.05-17.53,0,0-.01-.01-.02-.02h0c-2.41-2.19-6.26-1.33-7.5,1.68-2.92,7.07-5.61,13.49-8.07,19.99-2.96,7.82-5.42,15.7-4.16,23.25,0,.02,0,.04,0,.07l-.38,4.56c-3.24,23.37-3.68,46.41,4.78,68.59,1.54,4.04,4.97,7.36,8.07,11.75.03.04.07.08.12.1,1.6.67,29.6,12.23,28.91,3.77.44.19,9.24-47.65,9.54-49.31Z"/>
  <path id="Left_Thigh" data-name="Left Thigh" class="cls-1" d="m171.04,343.19s0-.06,0-.09c1.29-7.52-4.13-20.53-5.23-28.69-.17-1.27,3.43-12.08,4.22-13.21,6.76-9.67,9.03-15.59,16.26-24.9,4.84-6.24,10.67-11.71,16.05-17.53,0,0,.01-.01.02-.02h0c2.41-2.19,6.26-1.33,7.5,1.68,2.92,7.07,5.61,13.49,8.07,19.99,2.96,7.82,5.42,15.7,4.16,23.25,0,.02,0,.04,0,.07l.38,4.56c3.24,23.37,3.68,46.41-4.78,68.59-1.54,4.04-4.97,7.36-8.07,11.75-.03.04-.07.08-.12.1-1.6.67-29.6,12.23-28.91,3.77-.44.19-9.24-47.65-9.54-49.31Z"/>
  <path id="Left_neck" data-name="Left neck" class="cls-1" d="m179.67,80.87c.7,10.63,8.53,13.58,17.38,16.09-9.3.92-17.68,1.74-26.96,2.65,2.73-6.16,5.48-12.32,8.22-18.49.45-.08.91-.16,1.36-.25Z"/>
  <path id="Right_Neck" data-name="Right Neck" class="cls-1" d="m140.76,80.87c-.7,10.63-8.53,13.58-17.38,16.09,9.3.92,17.68,1.74,26.96,2.65-2.73-6.16-5.48-12.32-8.22-18.49-.45-.08-.91-.16-1.36-.25Z"/>
  <path id="Right_Knee" data-name="Right Knee" class="cls-1" d="m131.72,424.92s0,.04,0,.06c-.44.25-.8.45-1.1.61-2.39,1.32-5.34.78-7.14-1.32h0c-.19-.22-.44-.38-.72-.46-6.04-1.74-10.79-3.12-16.55-4.78-.24-.07-.49-.08-.74-.02-.66.16-2.1.49-3.28.77-.93.22-1.79-.55-1.72-1.54.61-8.23,1.22-16.5,1.86-25.12.26-3.45,4.36-4.93,6.63-2.38l.66.74c.86.97,1.95,1.68,3.16,2.09l20.89,6.95c3.1,1.03,5.24,4.05,5.1,7.41-.23,5.76-1.96,10.88-5.09,14.81"/>
  <path id="Left_Knee" data-name="Left Knee" class="cls-1" d="m189.23,424.92s0,.04,0,.06c.44.25.79.45,1.09.61,2.36,1.32,5.28.78,7.06-1.32h0c.19-.22.44-.38.71-.46,5.97-1.74,10.67-3.12,16.37-4.78.24-.07.49-.08.73-.02l3.24.77c.92.22,1.78-.55,1.7-1.54-.6-8.23-1.21-16.5-1.84-25.12-.25-3.45-4.31-4.93-6.56-2.38l-.65.74c-.85.97-1.93,1.68-3.12,2.09l-20.66,6.95c-3.07,1.03-5.18,4.05-5.05,7.41.23,5.76,1.94,10.88,5.04,14.81"/>
  <path id="Stomach" class="cls-1" d="m135.53,227.76c-2.25.66-4.68.36-6.7-.81-4.73-2.74-9.23-5.33-13.64-8.08-.9-.56-1.54-2.17-1.59-3.32-.19-4.26-.07-8.53-.07-13.5l-.95-13.23c-.04-.58,0-1.17.14-1.74l.21-.89c.34-1.46.12-3-.65-4.28-2.05-3.4-3.41-7.47-5.84-10.62-2.83-3.69-2.82-7.26-1.61-11.03l1.17-6.11v-11.95c0-1.22,1.61-1.67,2.25-.62,3.36,5.55,6.5,10.74,9.76,16.13l6.24,4.12c4.24.48,7.47.84,11.02,1.24l4.87-.83c4.37-4.14,10.58-7.4,18.24-9.03l2.72.27c9.21,1.13,16.28,4.73,20.73,10.13l3.39-.4h12.86l4.05-.62c1.27-.97,2.63-1.82,4.15-2.48l.47-2.84c2.06-3.84,4.06-7.56,6.29-11.71.68-1.27,2.61-.86,2.71.58.22,3.16.41,6.02.61,8.94l-.31,3.87c1.13,2.55,1.88,6.07.98,8.56-2.22,6.18-5.41,12.02-8.31,17.95l-1.07,4.44-1.03,13.36c3.36,12.59-1.99,20.21-16.66,23.24l-.24-.06c-1.16.28-2.66.38-4.35.41-.62.01-1.17.4-1.53.3"/>
  <path id="Right_Thumb" data-name="Right Thumb" class="cls-1" d="m5.77,291.88c2.15-.94,4.34-1.89,6.55-2.86.36-.16.54-.56.44-.94-.52-1.9-.73-3.63-.8-4.96-.02-.34-.41-.5-.67-.28-2.6,2.19-5.55,3.99-7.48,6.6-.98,1.32.46,3.09,1.97,2.43Z"/>
  <path id="Right_Pinky_Finger" data-name="Right Pinky Finger" class="cls-1" d="m33.95,304.1c.76,5.45.37,10.85,1.29,16.31.36.58,2.4.39,2.6-.25.41-5.24.83-10.47,1.25-15.71.06-.76-.56-1.39-1.32-1.37-1,.02-1.97.02-2.89-.02-.57-.02-1.01.47-.93,1.03Z"/>
  <path id="Right_Palm" data-name="Right Palm" class="cls-3" d="m39.32,275.69c-3.5-2.71-7.26-5.08-10.41-7.24-5.32,4.68-11.04,8.66-16.02,12.98-.65.56-.98,1.39-.91,2.24.11,1.41.38,3.18.96,5.08.02,0,.04-.02.06-.02l.62,1.84s-.01.02-.02.03c2.23,5.42,7.32,11.22,18.85,12.33,0-.02.02-.04.02-.05.43.04.86.09,1.29.13,0,0,0,0,0,.01,1.23.08,2.52.1,3.89.07.86-.02,1.58-.68,1.65-1.54.58-7.35,1.14-14.7,1.65-22.06.09-1.25-.66-3.04-1.64-3.79Z"/>
  <path id="Right_Middle_Finger" data-name="Right Middle Finger" class="cls-1" d="m18.65,297.44c-.37-.23-.85-.04-.97.38-2.49,8.66-9.45,17.27-10.17,26.12.13,1.4.69,1.46,1.23,1.13.22-.14.44-.2.59-.42,4.72-7.02,10.2-15.69,14.94-22.76.25-.37.14-.87-.24-1.11l-5.37-3.33Z"/>
  <path id="Right_Index_Finger" data-name="Right Index Finger" class="cls-1" d="m18.25,296.29c-1.92-1.46-3.35-3.07-4.27-4.89-.17-.34-.65-.34-.86-.03-4.1,6.44-7.85,13.1-11.66,19.72-.62,1.07-.98,2.29-1.41,3.48-.14.38.01.8.36,1.01h0c1.18.68,2.86.39,3.74-.65,4.64-5.53,9.15-12.96,13.76-17.94l.34-.7Z"/>
  <path id="Right_Ring_Finger" data-name="Right Ring Finger" class="cls-1" d="m24.72,301.2c-.03,8-5.19,16.65-4.94,24.63.03.8.54,1.5,1.29,1.76h0c.36.12.75-.07.9-.42,3.33-7.71,6.66-15.42,9.99-23.12.26-.61-.06-1.31-.68-1.52-2.09-.72-4.82-.58-6.57-1.33h0Z"/>
  <path class="cls-1" d="m290.85,302.87s.02.04.02.05c-.42.04-.87.06-1.32.09,0,0,0,0,0-.01.43-.04.86-.09,1.29-.13Z"/>
  <path class="cls-1" d="m310.33,288.73s.04.02.06.02c-.19.61-.4,1.22-.66,1.84,0,0-.01-.02-.02-.03l.62-1.84Z"/>
  <path id="Left_Thumb" data-name="Left Thumb" class="cls-1" d="m318.29,292.2c-2.28-.99-4.6-2-6.94-3.03-.53-.23-.83-.82-.69-1.38.41-1.57.61-3.02.69-4.21.04-.52.65-.76,1.04-.42,2.65,2.33,5.34,4.62,7.22,7.43.6.9-.34,2.03-1.33,1.6Z"/>
  <path id="Left_Pinky_Finger" data-name="Left Pinky Finger" class="cls-1" d="m288.6,303.06c.5-.02.88.41.81.9-.72,5.1-.3,10.23-1.1,15.33-.13.82-1.96,1.35-2.69.95-.05-.03-.09-.05-.12-.08-.43-5.48-.87-10.96-1.3-16.44-.03-.37.28-.68.65-.66,1.32.05,2.57.05,3.76,0Z"/>
  <path id="Left_Palm" data-name="Left Palm" class="cls-3" d="m284.01,275.69c3.15-2.44,6.51-4.6,9.44-6.58.57-.39,1.33-.34,1.85.11,5.14,4.42,10.59,8.25,15.35,12.4.49.43.76,1.06.72,1.71-.09,1.46-.35,3.36-.98,5.42-.02,0-.04-.02-.06-.02l-.62,1.84s.01.02.02.03c-2.23,5.42-7.32,11.22-18.85,12.33,0-.02-.02-.04-.02-.05-.43.04-.86.09-1.29.13,0,0,0,0,0,.01-1.2.08-2.47.1-3.81.07-.9-.02-1.66-.71-1.73-1.61-.58-7.33-1.14-14.66-1.64-21.99-.09-1.25.66-3.04,1.64-3.79Z"/>
  <path id="Left_Middle_Finger" data-name="Left Middle Finger" class="cls-1" d="m304.94,297.28c.24-.15.56-.03.64.25,2.44,8.75,10.13,17.31,10.85,26.26.15.59-1.4.85-1.75,1.03-.23.12-.52.04-.67-.18-4.76-7.09-10.31-15.86-15.08-22.97-.17-.26-.09-.6.17-.77l5.84-3.62Z"/>
  <path id="Left_Index_Finger" data-name="Left Index Finger" class="cls-1" d="m305.43,296.98c1.65-1.25,2.6-3.31,3.51-4.82.4-.66,1.38-.64,1.79.01,3.9,6.19,7.5,12.57,11.15,18.91.62,1.07.98,2.29,1.41,3.48.14.38-.01.8-.36,1.01h0c-.63.36-1.54.23-2.02-.31-5.03-5.56-10.53-12.95-15.47-18.28h0Z"/>
  <path id="Left_Ring_Finger" data-name="Left Ring Finger" class="cls-1" d="m298.61,301.2c.03,7.78,5.72,16.23,5.49,24.04-.03,1.07-.77,1.99-1.79,2.33l-.06.02c-.36.12-.75-.07-.9-.42-3.42-7.92-6.84-15.83-10.26-23.75-.12-.27.03-.59.31-.68,2.34-.79,5.29-.72,7.21-1.54h0Z"/>
  <path id="Right_Ear" data-name="Right Ear" class="cls-4" d="m134.37,32.9c-.1.39-.21.78-.37,1.15-2.08,5.07-.82,9.44,1.04,13.89.41.98.92,1.93,1.47,2.85,3.68-8.46.07-14.99-2.14-17.89Z"/>
  <path id="Head" class="cls-1" d="m187.48,32.67c-.57-2.63-.08-5.7-.2-8.51-.67-15.46-9.71-24.14-25.17-24.16h-1.81c-15.46.02-24.5,8.7-25.17,24.16-.12,2.9.41,6.06-.24,8.74,2.21,2.9,5.82,9.42,2.14,17.89,2.62,4.42,6.26,8.39,6,14.1-.02.35.53.87.94,1.09,4.77,2.59,9.32,5.86,14.4,7.49.96.31,1.9.48,2.83.54.93-.06,1.87-.23,2.83-.54,5.08-1.63,9.63-4.9,14.4-7.49.41-.22.96-.73.94-1.09-.25-5.62,3.27-9.55,5.88-13.89-3.93-8.79.02-15.52,2.22-18.32Z"/>
  <path id="Left_Ear" data-name="Left Ear" class="cls-4" d="m187.88,34.04c-.18-.44-.3-.9-.41-1.37-2.21,2.8-6.15,9.53-2.22,18.32.6-.99,1.15-2,1.59-3.06,1.87-4.45,3.12-8.82,1.04-13.89Z"/>
  <path id="Left_Leg" data-name="Left Leg" class="cls-1" d="m209,521.48c-1.47,2.52-.51,7.58,1.21,10.09,1.71,2.49,4.9.67,7.31.16,2.25-.48,5.3.56,6.08-3.53,3.64-19.11,7.8-38.14,6.48-57.78-.52-7.76-1.63-15.43-4.88-22.78l-3.4-14.28c-.17-3.15-.37-6.3-.6-9.45-.2-2.7-2.02-2.84-3.74-2.95-9.23-.61-17.34,2.26-24.35,8.25-.5.43-1.35,1.11-1.26,1.46,1.58,5.86-.98,12.16,2.56,17.91l-1.33,3.53c-4.39,20.65,2.95,39.08,12.93,56.73l3,12.64Z"/>
  <path id="Right_Leg" data-name="Right Leg" class="cls-1" d="m112.01,521.48c1.47,2.52.51,7.58-1.21,10.09-1.71,2.49-4.9.67-7.31.16-2.25-.48-5.3.56-6.08-3.53-3.64-19.11-7.8-38.14-6.48-57.78.52-7.76,1.63-15.43,4.88-22.78l3.4-14.28c.17-3.15.37-6.3.6-9.45.2-2.7,2.02-2.84,3.74-2.95,9.23-.61,17.34,2.26,24.35,8.25.5.43,1.35,1.11,1.26,1.46-1.58,5.86.98,12.16-2.56,17.91l1.33,3.53c4.39,20.65-2.95,39.08-12.93,56.73l-3,12.64Z"/>
  <path id="Right_Ring_Toe" data-name="Right Ring Toe" class="cls-1" d="m83.78,576.92c-.59.84-.86,1.81.33,2.35,1.41.64,1.06-.69,1.43-1.35.93-1.67,1.78-2.69,2.93-4.23-.78-.57-1.48-1.16-2.09-1.78-.81,2.16-1.66,3.66-2.6,5Z"/>
  <path id="Right_Pinky_Toe" data-name="Right Pinky Toe" class="cls-1" d="m84.72,569.84l-1.34,2-.54.71c-.4.94-.92,1.4-1.23,2.08-.35.78-.09,2.57.4,2.31,2.08-.71,2.5-3.21,4.35-5.03-.67-.68-1.23-1.37-1.65-2.07Z"/>
  <path id="Right_Middle_Toe" data-name="Right Middle Toe" class="cls-1" d="m87.33,576.55c-.54.65-1,1.4-1.05,2.28-.05.77.35,1.28,1.11,1.5.58.17,1.07.1,1.14-.57.29-2.8,1.74-2.25,2.9-4.29-1.06-.54-2.04-1.13-2.92-1.76-.1,1.26-.34,1.83-1.17,2.83Z"/>
  <path id="Right_Big_Toe" data-name="Right Big Toe" class="cls-1" d="m96.39,577.34l-1.42,2.65c-.78,1.46.27,3.22,1.92,3.23,1.8,0,3.34-.77,4.63-1.91,1.37-1.22,2.73-2.45,3.94-3.79-2.37.75-5.61.72-9.07-.18Z"/>
  <path id="Right_Foot" data-name="Right Foot" class="cls-1" d="m114.82,557.96c-1.38-3.41-2.01-6.83-.69-10.44.96-2.63.57-5.33-.66-7.71-.77-1.48-1.27-2.99-1.59-4.5h-14.3c.58,3.83,1.02,7.72-.29,11.16-2.6,6.82-3.9,14.44-9.48,19.89-.28.27-.54.56-.72.9-.46.88-1.68,1.64-2.27,2.44l-.09.14c.42.7.98,1.4,1.65,2.07,0,0,.01-.01.02-.02,0,0,0,.02,0,.02.61.61,1.3,1.21,2.09,1.78.01-.02.03-.03.04-.05,0,.03,0,.05,0,.08.88.63,1.86,1.22,2.92,1.76.04-.08.09-.15.13-.24,0,.1-.03.19-.04.28.82.41,1.67.79,2.58,1.12.15.05.29.09.44.14.52-.11,1.16.03,1.9.47l-.04.08c3.45.89,6.7.93,9.07.18,1.94-2.14,3.52-4.54,4.25-7.57.34-1.41.92-2.66,2.32-3.51,3.92-2.37,4.49-4.26,2.79-8.48Z"/>
  <path id="Right_Index_Toe" data-name="Right Index Toe" class="cls-1" d="m91.51,575.52c-.17,1.08-.64,1.34-.7,1.49-.32.39-.41.33-.62.77-.21.46-.39.9-.49,1.35-.37,1.58,1.06,3,2.64,2.63.24-.06.47-.12.71-.17l.07-.03c.03-.99-.04-2,.11-2.97.16-1.07.63-1.66,1.3-1.81-.15-.05-.29-.09-.44-.14-.91-.33-1.76-.71-2.58-1.12Z"/>
  <path id="Left_Ring_Toe" data-name="Left Ring Toe" class="cls-1" d="m237.76,576.92c.59.84.86,1.81-.33,2.35-1.41.64-1.06-.69-1.43-1.35-.93-1.67-1.78-2.69-2.93-4.23.78-.57,1.48-1.16,2.09-1.78.81,2.16,1.66,3.66,2.6,5Z"/>
  <path id="Left_Pinky_Toe" data-name="Left Pinky Toe" class="cls-1" d="m236.82,569.84l1.34,2,.54.71c.4.94,1.52,1.85,1.83,2.53.35.78-.51,2.11-1,1.85-2.08-.71-2.5-3.21-4.35-5.03.67-.68,1.23-1.37,1.65-2.07Z"/>
  <path id="Left_Middle_Toe" data-name="Left Middle Toe" class="cls-1" d="m234.21,576.55c.54.65,1,1.4,1.05,2.28.05.77-.35,1.28-1.11,1.5-.58.17-1.07.1-1.14-.57-.29-2.8-1.74-2.25-2.9-4.29,1.06-.54,2.04-1.13,2.92-1.76.1,1.26.34,1.83,1.17,2.83Z"/>
  <path id="Left_Big_Toe" data-name="Left Big Toe" class="cls-1" d="m225.15,577.34l1.42,2.65c.78,1.46-.27,3.22-1.92,3.23-1.8,0-3.34-.77-4.63-1.91-1.37-1.22-2.73-2.45-3.94-3.79,2.37.75,5.61.72,9.07-.18Z"/>
  <path id="Left_Foot" data-name="Left Foot" class="cls-1" d="m206.72,557.96c1.38-3.41,2.01-6.83.69-10.44-.96-2.63-.57-5.33.66-7.71.77-1.48,1.27-2.99,1.59-4.5h14.3c-.58,3.83-1.02,7.72.29,11.16,2.6,6.82,3.9,14.44,9.48,19.89.28.27.54.56.72.9.46.88,1.68,1.64,2.27,2.44l.09.14c-.42.7-.98,1.4-1.65,2.07,0,0-.01-.01-.02-.02,0,0,0,.02,0,.02-.61.61-1.3,1.21-2.09,1.78-.01-.02-.03-.03-.04-.05,0,.03,0,.05,0,.08-.88.63-1.86,1.22-2.92,1.76-.04-.08-.09-.15-.13-.24,0,.1.03.19.04.28-.82.41-1.67.79-2.58,1.12-.15.05-.29.09-.44.14-.52-.11-1.16.03-1.9.47l.04.08c-3.45.89-6.7.93-9.07.18-1.94-2.14-3.52-4.54-4.25-7.57-.34-1.41-.92-2.66-2.32-3.51-3.92-2.37-4.49-4.26-2.79-8.48Z"/>
  <path id="Left_Index_Toe" data-name="Left Index Toe" class="cls-1" d="m230.03,575.52c.17,1.08.64,1.34.7,1.49.32.39.41.33.62.77.21.46.39.9.49,1.35.37,1.58-1.06,3-2.64,2.63-.24-.06-.47-.12-.71-.17l-.07-.03c-.03-.99.04-2-.11-2.97-.16-1.07-.63-1.66-1.3-1.81.15-.05.29-.09.44-.14.91-.33,1.76-.71,2.58-1.12Z"/>
</svg>