<?xml version="1.0" encoding="UTF-8"?>
<svg id="Layer_1" data-name="Layer 1" xmlns="http://www.w3.org/2000/svg" viewBox="0 0 183.64 477.8">
  <defs>
    <style>
      .cls-1 {
        fill: #55c1f0;
        stroke-width: 0px;
      }
    </style>
  </defs>
  <path class="cls-1" d="m67.35,472.34c-.94.52-1.46,1.33-2.04,2.13-1.01,1.4-2.97,1.43-4.19.15-.32-.34-.6-.48-1.04-.55-2.19-.33-1.89-.4-2.12-2.16-.11-.88-2.9-1.05-2.55-2.83.21-1.03-1.03-.55-1.64-.8-.05-.02-.1-.06-.12-.12-.57-1.45.15-2.61,1.05-3.51,4.17-4.17,7.35-9.04,10.04-14.23,1.06-2.05,1.7-4.21,1.07-6.62-.31-1.2-.08-2.5.21-3.76,1.07-4.71.2-9.39-.8-13.96-1.98-9.01-4.54-17.88-6.77-26.83-1.64-6.56-2.99-13.2-3.36-20.04-.27-4.96-.22-9.88.15-14.8.41-5.53,1.25-11.03,2.18-16.49s1.09-11.17.39-16.74c-.82-6.53-2.36-12.89-3.85-19.27-1.17-5.01-2.24-10.05-3.46-15.06-1.57-6.45-2.8-12.99-3.64-19.58-1.14-8.95-1.79-17.92-1.41-26.91.22-5.15.69-10.29,1.55-15.4.39-2.32.79-4.69,1.01-7.06.23-2.43,1.13-4.79,1.49-7.22.78-5.19,1.87-10.32,2.57-15.53.6-4.44,1.37-8.89,2.13-13.33,1.31-7.68,3.18-15.37,2.39-23.25-.39-3.87-1.14-7.72-1.81-11.57-.57-3.32-1.54-6.54-2.11-9.85-.07-.4-.04-.86-.69-1.04-.78,5.15-1.56,10.28-2.34,15.41-.61,4-1.43,7.96-1.89,11.99-.31,2.66-.61,5.32-1.02,7.96-.79,5.09-1.51,10.23-2.61,15.28-.95,4.39-2.12,8.72-3.21,13.08-.95,3.8-2.23,7.5-3.64,11.14-.85,2.21-1.37,4.56-2.3,6.72-.83,1.91-1.5,3.89-2.31,5.79-1.03,2.42-.91,4.86-.71,7.31.42,5.01.22,9.96-.24,14.96-.54,5.82-2.04,11.49-2.4,17.32-.09,1.42-1.02,2.42-1.78,3.48-.3.41-.9.52-1.49.22-.82-.43-1.29-.99-1.34-1.96-.14-2.73.38-5.4.58-8.1.04-.59.21-1.17-.02-2.15-.64,3.01-1.28,5.65-1.73,8.34-.25,1.48-1.04,2.68-1.65,3.96-.37.77-1.18,1.34-2.08,1.16-.99-.19-1.15-1.12-1.25-1.98-.3-2.73.75-5.29.99-8.21-1.48,2.28-1.73,4.68-2.22,7.03-.32,1.57-.69,3.14-1.9,4.37-.55.56-1.12,1.05-1.84.78-.83-.32-1.17-1.08-1.23-2.03-.16-2.27.3-4.45.78-6.62.51-2.28,1.05-4.55,1.27-7.33-1.03,2.69-1.32,5.13-1.79,7.53-.38,1.96-1.06,3.81-2.35,5.38-.43.53-.92,1-1.7.69-.72-.28-1.29-.69-1.26-1.57.07-1.86-.11-3.72.21-5.59.89-5.15,1.53-10.34,2.95-15.39.14-.51.07-1.07.11-1.91-1.47,1.19-2.88,2.13-4.03,3.32-1.46,1.5-3.16,1.79-5.1,1.64-1.59-.12-1.64-1.05-1.26-2.23.47-1.47,1.48-2.66,2.46-3.75,1.6-1.77,2.38-4.03,3.88-5.86,1.87-2.28,3.57-4.6,5.97-6.44,3.97-3.04,6.01-7.2,6.44-12.27.53-6.17.67-12.36,1.05-18.54.46-7.44.9-14.9,2.09-22.26,1.13-6.97,2.68-13.85,5.21-20.49,1.28-3.37,1.8-6.96,2.15-10.57.32-3.25-.07-6.52.12-9.71.37-6.26-.22-12.53.52-18.77.44-3.72-.25-7.47-.37-11.2-.27-8.47,1.46-16.39,5.71-23.71.79-1.36,1.94-2.56,3.13-3.61,4.02-3.52,8.75-5.83,13.62-7.92,7.39-3.17,14.72-6.51,21.7-10.52,1.55-.89,3.58-1.24,4.39-3.25,1.13-2.79.92-5.65.69-8.55-.25-3.21-2.54-5.49-3.53-8.35-.17-.5-.38-.92-.41-1.5-.08-1.29-.24-2.58-1.95-3.02-1.3-.33-1.86-1.72-2.39-2.8-1.55-3.2-3.42-6.32-3.17-10.1.05-.82.18-1.69.88-2.09,1.73-1,1.27-2.48,1.16-3.99-.37-5.23-.92-10.55,1.68-15.4,2.8-5.24,7.26-8.76,12.97-10.17,8.09-2,16.05-1.38,23.08,4.02,4.06,3.12,6.53,7.91,6.88,13.02.24,3.39.35,6.85-.47,10.21-.26,1.08.26,1.64,1.07,2,1.18.53,1.36,1.38,1.33,2.59-.09,4.21-1.37,8.23-4.29,10.98-3.1,2.92-3.5,6.93-5.61,10.15-2.38,3.63-1.86,7.53-1.45,11.48.19,1.85,1.44,2.98,2.83,3.72,5.61,2.97,11.28,5.86,17,8.63,4.69,2.27,9.56,4.15,14.23,6.48,2.64,1.31,4.95,2.95,6.92,5.12,3.82,4.21,5.94,9.18,7.06,14.74,1.17,5.85,1.1,11.66.72,17.55-.21,3.26-.39,6.57.18,9.84.06.32.1.86.1,1.19-.13,7.43.62,14.85.38,22.28-.08,2.6.43,5.06,1.17,7.6,1.46,5.01,3.2,9.94,4.47,15,.82,3.28,1.27,6.65,1.72,10.02.52,3.91,1.35,7.79,1.36,11.75.02,4.15.96,8.25.88,12.37-.08,4.52.44,9,.6,13.5.17,4.54.89,9.03,4.28,12.48,1.47,1.5,3.12,2.82,4.73,4.17,2.4,2,3.76,4.75,5.34,7.32.99,1.6,2.34,2.87,3.42,4.38.2.29.52.51.68.81.47.94,1.12,1.93.62,2.98-.52,1.09-1.67.83-2.59.74-1.72-.17-3.22-.93-4.5-2.1-.53-.49-.94-1.11-1.48-1.58-.43-.37-.85-1.09-1.49-.76-.63.33-.42,1.13-.27,1.66,1.06,3.71,1.37,7.57,2.23,11.31.61,2.66.79,5.3.94,7.98.07,1.18.33,2.72-.94,3.09-1.73.49-1.91-.48-2.52-1.71-.18-.37-3.03-8.71-3.22-9.29-.97,1.66,1.92,10.45,1.52,11.91-.19.69-.76,1.25-1.45,1.44-1.23.34-1.57-.76-2.09-1.52-1.13-1.66-1.62-3.5-1.74-5.51-.14-2.21-1.08-4.23-1.9-6.28.45,2.71,1.08,5.38,1.26,8.12.06.92-.11,1.68-.65,2.37-.77.99-2.06.85-2.72-.21-1.54-2.44-1.95-5.25-2.49-8.01-.3-1.51-.6-3.02-1.29-4.48.22,2.29.39,4.59.69,6.86.14,1.09.16,2.17.11,3.25-.05,1.04-.52,1.93-1.59,2.18-1.16.27-1.73-.58-2.17-1.49-1.22-2.51-.97-5.35-1.67-7.96-.84-3.08-1.26-6.25-1.39-9.45-.16-3.83-1.15-7.56-1.04-11.42.09-3.01.9-5.95.77-8.99-.09-2.04-.88-3.81-1.59-5.66-1.21-3.17-2.09-6.46-3.36-9.61-1.9-4.69-3.54-9.48-4.71-14.4-1.47-6.19-3-12.37-4.05-18.65-1.09-6.5-1.82-13.05-2.7-19.58-.7-5.23-1.78-10.42-2.62-15.63-.39-2.43-.64-4.88-.96-7.32-.04-.28-.14-.56-.5-.87-.59,2.43-1.27,4.85-1.75,7.3-1.02,5.18-1.94,10.38-2.44,15.64-.37,3.9-.11,7.81.46,11.71,1.08,7.34,2.7,14.59,3.48,21.99.53,5.06,1.46,10.08,2.54,15.07.99,4.63,1.74,9.31,2.46,13.99.68,4.45,1.29,8.91,1.73,13.39.43,4.32.52,8.67.48,13.02-.06,6.2-.77,12.34-1.36,18.5-.74,7.67-2.66,15.09-4.26,22.56-.99,4.62-2.04,9.27-3.34,13.84-.82,2.87-1.02,5.91-1.71,8.8-.76,3.16-1.25,6.33-1.82,9.51-.98,5.44-.48,10.78.34,16.16.82,5.33,1.6,10.67,2.07,16.06.28,3.12.2,6.25.51,9.37.31,3.02-.09,6.14-.35,9.2-.73,8.43-3.17,16.52-5.03,24.72-1.07,4.68-2.57,9.27-3.67,13.95-1.2,5.09-2.44,10.18-2.45,15.47,0,1.59.27,3.12.55,4.66.15.85.38,1.73.16,2.51-1.14,4,.91,7.13,2.71,10.31,2.25,3.98,5,7.62,8.13,10.93,1.44,1.52,2.34,4.17.85,4.55-.92.23-1.19,2.03-1.89,2.77-.3.3-.38-.27-.95.83-.43.82-1.94,1.05-3.39.87-.1-.01-.42.02-.52.72-2.99,1.88-3.63,1.74-5.53-1.09-.29-.44-.44-1.01-1.03-1.28.38,1.35.3,2.7.16,4.02-.16,1.41-2.3,2.31-3.99,1.7-1.94-.69-3.19-2.09-3.9-4.01-.54-1.46-1.11-2.86-2.28-4.04-1.21-1.21-1.66-2.92-1.97-4.59-.45-2.37-1.19-4.62-2.3-6.77-1.32-2.54-1.77-5.22-1.02-8.06.63-2.4.67-4.82.43-7.31-.49-5.13.83-10.18.77-15.34-.09-6.84-.78-13.57-1.97-20.28-1.43-8.06-2.77-16.14-2.47-24.38.19-5.11.56-10.21,1.39-15.26,1.11-6.73,1.07-13.41-.43-20.09-.63-2.83-.27-5.76-.53-8.65-.75-8.4-.9-16.84-1.24-25.27-.2-5.11-.27-10.24-.63-15.35-.42-5.94-.42-11.94-1.22-17.83-.6-4.36-.76-8.89-2.61-13.03-.16-.36-.05-.93-.64-.89-.43.03-.35.55-.52.83-1.27,2.1-1.19,4.51-1.64,6.79-.93,4.7-1.22,9.47-1.72,14.22-.24,2.25-.37,4.55-.38,6.81-.02,4.77-.4,9.51-.48,14.27-.12,7.54-.39,15.08-.93,22.6s-.65,14.87-2.17,22.24c-.66,3.21-.13,6.61.27,9.92.49,4,1.02,7.99,1.38,12,.44,4.87.63,9.75.22,14.64-.44,5.26-1.08,10.52-2.19,15.67-2.03,9.4-2.39,18.91-1.84,28.42.2,3.54.73,7.03.24,10.58-.18,1.28.21,2.53.53,3.74.96,3.64.55,7.01-1.51,10.2-.85,1.32-1.15,2.92-1.47,4.44-.5,2.3-1.08,4.46-2.65,6.38-1.14,1.39-1.64,3.29-2.5,4.93-.77,1.48-2.14,2.27-3.7,2.56-2.56.47-4.32-1.38-3.72-3.91.12-.5.28-.98.42-1.48Z"/>
</svg>