<?xml version="1.0" encoding="UTF-8"?>
<svg id="Layer_1" data-name="Layer 1" xmlns="http://www.w3.org/2000/svg" height="600" viewBox="0 0 267 600.05" preserveAspectRatio="xMinYMin meet">
  <defs>
    <style>
      @keyframes blink {
        0% {
            opacity: 1;
        }
        50% {
            opacity: 0;
        }
        100% {
            opacity: 1;
        }
    }
  
    .blink-animation {
      animation: blink 1s infinite;
  }
  
    path {
        fill: #232e51;
        }
         path:hover {
        cursor: pointer;
        transition: fill 0.3s;
        fill: #425799;
        }
      .cls-1 {
        stroke-width: 0px;
      }

      .cls-1, .cls-2 {
        fill: #232e51;
      }

      .cls-2, .cls-3 {
        stroke: #fff;
        stroke-miterlimit: 10;
        stroke-width: .6px;
      }

      .cls-3 {
        fill: none;
      }
       .red-dot {
            fill: red;
            stroke-width: 0.5;
        }
        .yellow-dot {
          fill: yellow;
          stroke-width: 0.5;
      }
    </style>
  </defs>
  <path id="hair" data-name="top" group-name="head" class="cls-1" d="m118.1,0c2.64,1.43,5.71,1.32,8.51,2.27,6.92,2.38,13.05,5.55,15.64,13.11.37,1,1.11,1.53,2.06,1.8,13.21,3.86,19.29,13.53,21.51,26.32,1.59,9.25,1,18.44-1.27,27.58v-3.06c0-1.16-.42-2.17-1.8-2.11-2.91.05-3.7-2.06-4.39-4.17-1.43-4.54-2.22-9.25-2.75-13.95-.48-4.17-2.22-6.82-6.61-7.5-2.17-.32-4.28-1.11-6.45-1.64-3.12-.74-6.08-.32-8.77,1.59-6.66,4.81-14.06,8.14-21.88,10.62-1.64.53-2.43,1.53-2.75,3.06-.48,2.59-.9,5.23-1.43,7.77-.48,2.17-1.22,4.12-3.91,4.28-1.64.11-1.74,1.43-1.64,2.59.53,5.07.26,10.46,5.28,13.9.58.42.79,1.43,1.11,2.22.9,2.11,1.37,4.6,2.75,6.39,4.44,5.87,3.43,12.52,3.33,19.13,0,.9-.26,1.69-1,2.22-3.38,2.48-6.98,5.02-11.26,4.12-7.19-1.48-14.32-.63-21.45-.48-2.22,0-4.44,0-6.66.05-2.8.16-3.49-1.22-3.06-3.7.53-3.17,1.53-6.13,2.7-9.09,1.74-4.44,3.38-8.88,5.34-13.21,5.92-13.26,5.92-27.11,3.8-41.06-1.48-9.99-1.48-19.71,2.17-29.33,4.07-10.78,12.31-16.22,22.93-18.76,1-.26,2.11-.16,3.01-.85h6.98l-.05-.11Z"/>
  <path id="right_chest" data-name="right" group-name="chest" class="cls-1" d="m131.73,166.3c.21,3.91.48,7.82-.05,11.73-.79,6.08-5.07,9.72-11.2,9.72-3.86,0-7.5-1-11.15-2.22-6.82-2.33-13.16-5.71-19.5-9.14-1.69-.95-2.06-2.01-1.69-3.86,1.37-6.55,3.33-12.89,6.5-18.81,6.92-12.84,19.61-17.97,33.61-13.79,2.06.63,2.17,2.01,2.27,3.59.42,7.61.85,15.17,1.22,22.78h0Z"/>
  <path id="left_chest" data-name="left" group-name="chest" class="cls-1" d="m134.96,166.14c.48-7.61,1-15.17,1.32-22.78.11-2.43,1.06-3.22,3.22-3.75,16.86-4.17,28.01,3.75,34.14,17.23,2.27,5.02,3.8,10.3,4.86,15.69.26,1.32.42,2.48-1,3.28-8.83,5.07-17.76,9.83-27.95,11.57-3.01.53-6.18.74-8.93-1-3.22-2.06-5.55-4.76-5.76-8.93-.16-3.8-.21-7.61,0-11.41l.11.11Z"/>
  <path id="right_thigh" data-name="right" group-name="thigh" class="cls-1" d="m104.68,415.47c-5.07-1.85-9.04-5.87-10.89-10.99-7.61-21.19-13.58-42.75-14.53-65.53-.32-7.61-.21-15.17,1.43-22.67.21-.95.53-1.9.85-2.85l.11-.26c.95-2.38,1.27-4.97,1.16-7.56-.42-9.3,0-18.6,1.85-27.85l6.34-10.89.42-.32c1.11.58,1,1.59,1.27,2.43,3.22,10.89,7.93,21.14,12.89,31.34,6.29,12.84,11.52,26.16,15.38,39.84,2.8,9.83,3.43,20.24,4.02,30.49l-.11,12.84-.32,4.44c-.05.85,0,1.69,0,2.54.48,5.71.37,11.52-.32,17.39-.37,3.38-1.37,6.61-2.96,9.62-.9,1.69-2.06,2.85-4.23,2.48l-12.47-4.54.11.05Z"/>
  <path id="right_leg" data-name="right" group-name="leg" class="cls-1" d="m96.06,468.36c-.11-4.23,1.27-7.19,1.85-11.78l20.72-1.27c10.94,32.13,8.56,66.32-1.96,97.02,0,0-7.35,2.48-8.19.26-1.59-4.12-3.12-10.67-4.49-14.9-2.7-8.35-4.81-16.8-7.82-25.05-4.7-12.95-4.33-26.32-1.22-40.53l1-3.75h.11Z"/>
  <path id="right_palm" data-name="right" group-name="palm" class="cls-1" d="m32.07,289.33c-.21,6.13-.79,12.26-3.8,17.76-2.27,4.17-4.23,4.44-7.5,1-2.11-2.22-4.02-4.6-6.66-6.29-1.43-.9-1.48-2.11-.9-3.59,2.33-5.76,6.18-10.52,10.09-15.22,2.01-2.43,4.49-.42,6.76,0,1.85.37,2.11,1.8,2.01,3.38v2.96Z"/>
  <path id="hip" data-name="hip" group-name="hip" class="cls-1" d="m116.99,320.29h0c-2.01-5.13-5.23-13.32-7.29-18.44-2.7-9.88-7.61-18.97-11.63-28.38-.74-1.69-1.85-3.38-2.06-5.13l74.67.11c-1.11,2.7-2.11,5.44-3.38,8.03-3.86,7.87-7.03,16.01-10.15,24.2-1.16,3.01-1.06,3.65-1.9,6.71-.26,1.06-.42,3.43-1.53,5.34l-2.43,6.5c-3.43,6.02-7.4,4.23-14.32,4.6h-13.48c-2.64.16-5.18-1.22-6.5-3.54h0Z"/>
  <path id="neck" data-name="neck" group-name="neck" class="cls-1" d="m145.79,109.02c1.06,4.23,1.16,8.09-.69,11.73-2.85,5.76-5.92,11.41-8.88,17.07-.32.63-.74,1.43-1.59,1.27l-3.59-.48c-3.54-7.61-9.25-14.16-10.73-22.67-.37-2.11-.26-4.39.69-6.76l24.84-.11-.05-.05Z"/>
  <path id="right_hand" data-name="right" group-name="hand" class="cls-1" d="m64.78,244.62c-6.71,12.42-16.28,22.51-26.63,31.87-1.43,1.27-2.91,2.48-4.33,3.65-.48.37-1.06.69-1.59,1.06l-4.97-2.7c1.48-5.71,4.23-10.78,6.5-16.12,3.96-9.3,6.39-19.24,10.73-28.43,3.49-7.4,7.13-14.64,13.05-20.4,1.53-1.48,4.12-5.23,5.28-3.17l8.72,11.63c1.59,1.32-5.71,20.72-6.71,22.67l-.05-.05Z"/>
  <path id="right_knee" data-name="right" group-name="knee" class="cls-1" d="m119,425.24c2.91,8.24,1.22,16.17-1.53,23.99-1.9,5.5-8.98,7.03-12.95,2.7h0c-3.17-1.27-4.12-3.7-4.44-6.87-.53-5.34-1.06-10.62-1.06-16.01,0-.79.37-1.59.95-2.11l3.33-3.01c.58-1.64,5.39-3.12,8.3-2.59,1.69.32,2.8,1.06,3.17,2.43l4.12,1.53.11-.05Z"/>
  <path id="left_thigh" data-name="left" group-name="thigh" class="cls-1" d="m162.12,415.47c5.07-1.85,9.04-5.87,10.89-10.99,7.61-21.19,13.58-42.75,14.53-65.53.32-7.61.21-15.17-1.43-22.67-.21-.95-.53-1.9-.85-2.85l-.11-.26c-.95-2.38-1.27-4.97-1.16-7.56.42-9.3,0-18.6-1.85-27.85l-6.34-10.89-.42-.32c-1.11.58-1,1.59-1.27,2.43-3.22,10.89-7.93,21.14-12.89,31.34-6.29,12.84-11.52,26.16-15.38,39.84-2.8,9.83-3.43,20.24-4.02,30.49l.11,12.84.32,4.44c.05.85,0,1.69,0,2.54-.48,5.71-.37,11.52.32,17.39.37,3.38,1.37,6.61,2.96,9.62.9,1.69,2.06,2.85,4.23,2.48l12.47-4.54-.11.05Z"/>
  <path id="left_leg" data-name="left" group-name="leg" class="cls-1" d="m170.78,468.36c.11-4.23-1.27-7.19-1.85-11.78l-20.72-1.27c-10.94,32.13-8.56,66.32,1.96,97.02,0,0,7.35,2.48,8.19.26,1.59-4.12,3.12-10.67,4.49-14.9,2.7-8.35,4.81-16.8,7.82-25.05,4.7-12.95,4.33-26.32,1.22-40.53l-1-3.75h-.11Z"/>
  <path id="left_knee" data-name="left" group-name="knee" class="cls-1" d="m147.85,425.24c-2.91,8.24-1.22,16.17,1.53,23.99,1.9,5.5,8.98,7.03,12.95,2.7h0c3.17-1.27,4.12-3.7,4.44-6.87.53-5.34,1.06-10.62,1.06-16.01,0-.79-.37-1.59-.95-2.11l-3.33-3.01c-.58-1.64-5.39-3.12-8.3-2.59-1.69.32-2.8,1.06-3.17,2.43l-4.12,1.53-.11-.05Z"/>
  <path id="right_middle_finger" data-name="right middle" group-name="finger" class="cls-1" d="m6.23,327.8c1.43-6.76,4.07-13.21,7.24-19.45.42-.85,1.06-1.32,2.06-.9.95.37,1.11,1.16.95,2.11-.11.63-.21,1.27-.37,1.85-1.85,5.97-4.44,11.63-7.29,17.17-.37.74-.79,1.64-1.85,1.27-.9-.32-.58-1.22-.69-2.06h-.05Z"/>
  <path id="right_arm" data-name="right" group-name="arm" class="cls-1" d="m66.57,213.23c-1.64-.53-4.81-8.72-4.86-10.04-.11-2.54,0-5.07,0-6.87-.26-8.56,1.16-15.96,5.02-22.93,3.22-5.81,16.49-19.29,21.35-19.24,2.33,0-1.8,11.36-1.69,13.79l-1.74,22.19c-.11,1.96-.69,3.54-1.37,5.07-2.85,6.45-7.08,12-12.37,16.65-.63.58-1.32,1.06-2.06,1.48-.74.48-1.64.74-2.27-.11h0Z"/>
  <path id="left_arm" data-name="left" group-name="arm" class="cls-1" d="m199.85,213.23c1.64-.53,4.81-8.72,4.86-10.04.11-2.54,0-5.07,0-6.87.26-8.56-1.16-15.96-5.02-22.93-3.22-5.81-16.49-19.29-21.35-19.24-2.33,0,1.8,11.36,1.69,13.79l1.74,22.19c.11,1.96.69,3.54,1.37,5.07,2.85,6.45,7.08,12,12.37,16.65.63.58,1.32,1.06,2.06,1.48.74.48,1.64.74,2.27-.11h0Z"/>
  <path id="right_index_finger" data-name="right index" group-name="finger" class="cls-1" d="m2.84,320.35c1.32-5.87,4.39-11.41,7.08-17.12.26-.58.74-1.11,1.48-.63.79.53,1.69,1.22,1.27,2.27-2.22,5.92-4.28,11.89-7.66,17.28-.32.53-.79,1.16-1.48.85-1-.42-.53-1.43-.69-2.64Z"/>
  <path id="right_thumb_finger" data-name="right thumb" group-name="finger" class="cls-1" d="m19.38,285.68c-.37,1.32-1.22,2.43-2.27,3.28-4.23,3.54-9.09,6.13-13.79,8.93-1.11.69-2.38.58-3.12-.53-.63-.95.37-1.59,1.11-1.9,5.71-2.48,9.83-7.24,15.01-10.46.74-.42,1.32-1.06,2.27-.69.53.21.79.69.74,1.32l.05.05Z"/>
  <path id="right_ring_finger" data-name="right ring" group-name="finger" class="cls-1" d="m12.41,329.43c-1.22-.69-1.37-1.74-.85-2.91,1.96-4.65,3.96-9.35,5.97-13.95.32-.79.63-2.01,2.01-1.48,1.37.58,1.48,1.69.95,2.91-1.11,2.64-2.22,5.23-3.38,7.82-.95,2.11-2.01,4.17-3.01,6.29-.32.63-.58,1.37-1.64,1.32h-.05Z"/>
  <path id="left_neck" data-name="left" group-name="neck" class="cls-1" d="m146.32,134.97c-1.69,0-3.17-.37-2.75-2.27.53-2.33,2.75-12.52,5.18-13.79h0c.95-1.27,2.33-.37,3.49.05,5.02,2.01,9.67,4.76,14.11,7.77.63.42,1.37.74,1.27,1.64-.16,1.06-1.06,1.22-1.9,1.37-1.96.37-3.96.69-5.07.9l-14.32,4.28v.05Z"/>
  <path id="right_neck" data-name="right" group-name="neck" class="cls-1" d="m120.26,134.97c1.69,0,3.17-.37,2.75-2.27-.53-2.33-2.75-12.52-5.18-13.79h0c-.95-1.27-2.33-.37-3.49.05-5.02,2.01-9.67,4.76-14.11,7.77-.63.42-1.37.74-1.27,1.64.16,1.06,1.06,1.22,1.9,1.37,1.96.37,3.96.69,5.07.9l14.32,4.28v.05Z"/>
  <path id="right_pinky_finger" data-name="right pinky" group-name="finger" class="cls-1" d="m20.76,324.84c-2.06-2.33.79-9.14,4.76-12.37,0,4.23-1.22,9.2-4.76,12.37Z"/>
  <path id="left_palm" data-name="left" group-name="palm" class="cls-1" d="m234.94,289.11c.21,6.13.79,12.26,3.8,17.76,2.27,4.17,4.23,4.44,7.5,1,2.11-2.22,4.02-4.6,6.66-6.29,1.43-.9,1.48-2.11.9-3.59-2.33-5.76-6.18-10.52-10.09-15.22-2.01-2.43-4.49-.42-6.76,0-1.85.37-2.11,1.8-2.01,3.38v2.96Z"/>
  <path id="left_shoulder" data-name="left" group-name="shoulder" class="cls-1" d="m196.15,157.79c2.59-2.96,3.59-7.03,3.12-10.94-.37-3.28-.95-6.55-2.06-9.72-2.06-5.81-6.13-9.78-11.47-12.52,0,0-12.05-5.34-15.85,2.54-1.22.63-.32,1.9-.53,2.7.69,5.18,1.22,10.25,2.7,15.11,2.91,9.41,14.27,4.17,20.35,15.75,0,0,1.74-.74,3.7-2.91h.05Z"/>
  <path id="right_shoulder" data-name="right" group-name="shoulder" class="cls-1" d="m70.54,157.79c-2.59-2.96-3.59-7.03-3.12-10.94.37-3.28.95-6.55,2.06-9.72,2.06-5.81,6.13-9.78,11.47-12.52,0,0,12.05-5.34,15.85,2.54,1.22.63.32,1.9.53,2.7-.69,5.18-1.22,10.25-2.7,15.11-2.91,9.41-14.27,4.17-20.35,15.75,0,0-1.74-.74-3.7-2.91h-.05Z"/>
  <path id="left_hand" data-name="left" group-name="hand" class="cls-1" d="m201.91,244.62c6.71,12.42,16.28,22.51,26.63,31.87,1.43,1.27,2.91,2.48,4.33,3.65.48.37,1.06.69,1.59,1.06l4.97-2.7c-1.48-5.71-4.23-10.78-6.5-16.12-3.96-9.3-6.39-19.24-10.73-28.43-3.49-7.4-7.13-14.64-13.05-20.4-1.53-1.48-4.12-5.23-5.28-3.17l-8.72,11.63c-1.59,1.32,5.71,20.72,6.71,22.67l.05-.05Z"/>
  <path id="left_middle_finger" data-name="left middle" group-name="finger" class="cls-1" d="m260.83,327.58c-1.43-6.76-4.07-13.21-7.24-19.45-.42-.85-1.06-1.32-2.06-.9-.95.37-1.11,1.16-.95,2.11.11.63.21,1.27.37,1.85,1.85,5.97,4.44,11.63,7.29,17.17.37.74.79,1.64,1.85,1.27.9-.32.58-1.22.69-2.06h.05Z"/>
  <path id="left_index_finger" data-name="left index" group-name="finger" class="cls-1" d="m264.16,320.13c-1.32-5.87-4.39-11.41-7.08-17.12-.26-.58-.74-1.11-1.48-.63-.79.53-1.69,1.22-1.27,2.27,2.22,5.92,4.28,11.89,7.66,17.28.32.53.79,1.16,1.48.85,1-.42.53-1.43.69-2.64Z"/>
  <path id="left_thumb_finger" data-name="left thumb" group-name="finger" class="cls-1" d="m247.62,285.47c.37,1.32,1.22,2.43,2.27,3.28,4.23,3.54,9.09,6.13,13.79,8.93,1.11.69,2.38.58,3.12-.53.63-.95-.37-1.59-1.11-1.9-5.71-2.48-9.83-7.24-15.01-10.46-.74-.42-1.32-1.06-2.27-.69-.53.21-.79.69-.74,1.32l-.05.05Z"/>
  <path id="left_ring_finger" data-name="left ring" group-name="finger" class="cls-1" d="m254.6,329.17c1.22-.69,1.37-1.74.85-2.91-1.96-4.65-3.96-9.35-5.97-13.95-.32-.79-.63-2.01-2.01-1.48-1.37.58-1.48,1.69-.95,2.91,1.11,2.64,2.22,5.23,3.38,7.82.95,2.11,2.01,4.17,3.01,6.29.32.63.58,1.37,1.64,1.32h.05Z"/>
  <path id="left_pinky_finger" data-name="left pinky" group-name="finger" class="cls-1" d="m246.25,324.63c2.06-2.33-.79-9.14-4.76-12.37,0,4.23,1.22,9.2,4.76,12.37Z"/>
  <path id="right_ear" data-name="right" group-name="ear" class="cls-2" d="m106.31,65.9l-.69.05c-.21.11-1.59.05-2.27,0,0,0-1.37.16-1.22,2.06,0,0,.48,8.19,1.43,9.41,0,0,.85,2.17,2.43,3.75,2.64-5.44,1.74-11.52.32-15.27Z"/>
  <path id="left_ear" data-name="left" group-name="ear" class="cls-2" d="m162.65,65.84s-1.32.79-2.48-.11c-1.64,4.23-3.59,11.89,1.16,17.76v-.05c0,.11,1.59-4.33,1.59-4.33l1.59-8.09s.63-6.55-1.8-5.18h-.05Z"/>
  <path id="face" data-name="top" group-name="head" class="cls-2" d="m159.69,67.11c.32-1.06.26-2.22-.37-3.17-.53-.74-1-1.85-1.37-3.33-1.43-5.87-2.27-11.89-2.43-12.95-.16-1.06-.42-6.82-6.61-7.5,0,0-5.39-1.37-5.92-1.48s-4.76-1.8-8.56,1c-.21.16-14.74,8.4-20.4,10.36-.37.58-4.81.21-5.13,4.7,0-.16-1.53,7.98-1.53,7.98,0,0,.26,3.22-.95,3.7,1.43,3.75,2.17,9.3-.48,14.74.26.26.48.53.74.69,0,0,1.06.63,1.48,1.74,0,.05,1.96,5.23,1.96,5.23,0,0,.74,1.69,1.8,2.96.11.21,1.96,3.59,2.33,5.55.32,1.96,4.65,7.13,6.66,8.24,2.01,1.16,6.5,2.75,8.83,2.8s8.77-.05,13.11-3.22,8.61-8.46,9.14-9.56,5.65-7.24,5.65-7.24c0,0,3.01-2.48,3.7-4.97-4.07-5.07-3.01-11.89-1.59-16.38l-.05.11Z"/>
  <path id="nose" data-name="face" group-name="nose" class="cls-3" d="m137.81,74.93l-3.7,3.7c-.37.37-1,.37-1.37,0l-3.7-3.7c-.63-.63-.16-1.69.69-1.69h7.4c.9,0,1.32,1.06.69,1.69h0Z"/>
  <path id="stomach" data-name="stomach"  group-name="stomach" class="cls-1" d="m173,257.99c.21,3.49,1.37,3.86-1.27,5.02-1.64.74-3.54,1.32-4.49,1.11l-66.9-.32c-3.54-1.22-3.54-4.44-2.27-7.72,10.99-16.22-6.39-61.3-6.39-61.3-1.59-5.13,4.17-9.78,10.36-8.14,15.06,4.02,39.26,7.72,65,.74,6.18-1.69,12.05,3.01,10.36,8.19,0,0-21.45,50.36-4.44,62.46l.05-.05Z"/>
  <path id="right_ring_toe" data-name="right ring" group-name="toe" class="cls-1" d="m92.1,594.19c-.53.79-.79,1.69.32,2.17,1.32.58,1-.63,1.32-1.27.85-1.53,1.64-2.48,2.7-3.91-.74-.53-1.37-1.06-1.96-1.64-.74,2.01-1.53,3.38-2.43,4.65h.05Z"/>
  <path id="right_pinky_toe" data-name="right pinky" group-name="toe" class="cls-1" d="m92.94,587.58l-1.22,1.85-.48.69c-.37.85-.85,1.32-1.16,1.9-.32.74-.11,2.38.37,2.17,1.96-.63,2.33-2.96,4.02-4.65-.63-.63-1.16-1.27-1.53-1.9v-.05Z"/>
  <path id="right_middle_toe" data-name="right middle" group-name="toe" class="cls-1" d="m95.37,593.82c-.48.58-.95,1.32-1,2.11,0,.74.32,1.16,1,1.37.53.16,1,.11,1.06-.53.26-2.59,1.64-2.06,2.7-3.96-1-.48-1.9-1.06-2.7-1.64-.11,1.16-.32,1.69-1.11,2.64h.05Z"/>
  <path id="right_big_toe" data-name="right big" group-name="toe" class="cls-1" d="m103.78,594.56l-1.32,2.48c-.74,1.37.26,3.01,1.8,3.01,1.69,0,3.12-.74,4.28-1.8,1.27-1.11,2.54-2.27,3.65-3.54-2.22.69-5.23.69-8.4-.16h0Z"/>
  <path id="right_foot" data-name="right" group-name="foot" class="cls-1" d="m120.9,576.54c-1.27-3.17-1.85-6.34-.63-9.72.9-2.43.53-4.97-.63-7.13-.69-1.37-1.16-2.75-1.48-4.17h-13.26c.53,3.54.95,7.19-.26,10.36-2.43,6.34-3.65,13.42-8.83,18.5-.26.26-.53.53-.69.85-.42.79-1.59,1.53-2.11,2.27l-.11.11c.37.63.9,1.32,1.53,1.9h0c.58.58,1.22,1.11,1.96,1.64h0v.05c.79.58,1.74,1.11,2.7,1.64,0-.05.11-.16.11-.21v.26c.74.37,1.53.74,2.38,1.06.16,0,.26.11.42.16.48-.11,1.06,0,1.74.42h0c3.22.9,6.24.95,8.4.26,1.8-2.01,3.28-4.23,3.96-7.03.32-1.32.85-2.48,2.17-3.28,3.65-2.22,4.17-3.96,2.59-7.87l.05-.05Z"/>
  <path id="right_index_toe" data-name="right index" group-name="toe" class="cls-1" d="m99.23,592.87c-.16,1-.58,1.22-.63,1.37-.32.37-.37.32-.58.74s-.37.85-.48,1.27c-.37,1.48,1,2.8,2.43,2.43.21,0,.42-.11.63-.16h.05c0-.95,0-1.9.11-2.8.16-1,.58-1.53,1.22-1.69-.16,0-.26-.11-.42-.16-.85-.32-1.64-.69-2.38-1.06l.05.05Z"/>
  <path id="left_ring_toe" data-name="left ring" group-name="toe" class="cls-1" d="m173.64,594.19c.53.79.79,1.69-.32,2.17-1.32.58-1-.63-1.32-1.27-.85-1.53-1.64-2.48-2.7-3.91.74-.53,1.37-1.06,1.96-1.64.74,2.01,1.53,3.38,2.43,4.65h-.05Z"/>
  <path id="left_pinky_toe" data-name="left pinky" group-name="toe" class="cls-1" d="m172.74,587.58l1.22,1.85.48.69c.37.85,1.43,1.74,1.69,2.33.32.74-.48,1.96-.95,1.74-1.96-.63-2.33-2.96-4.02-4.65.63-.63,1.16-1.27,1.53-1.9l.05-.05Z"/>
  <path id="left_middle_toe" data-name="left middle" group-name="toe" class="cls-1" d="m170.31,593.82c.48.58.95,1.32,1,2.11,0,.74-.32,1.16-1,1.37-.53.16-1,.11-1.06-.53-.26-2.59-1.64-2.06-2.7-3.96,1-.48,1.9-1.06,2.7-1.64.11,1.16.32,1.69,1.11,2.64h-.05Z"/>
  <path id="left_big_toe" data-name="left big" group-name="toe" class="cls-1" d="m161.91,594.56l1.32,2.48c.74,1.37-.26,3.01-1.8,3.01-1.69,0-3.12-.74-4.28-1.8-1.27-1.11-2.54-2.27-3.65-3.54,2.22.69,5.23.69,8.4-.16h0Z"/>
  <path id="left_foot" data-name="left" group-name="foot" class="cls-1" d="m144.78,576.54c1.27-3.17,1.85-6.34.63-9.72-.9-2.43-.53-4.97.63-7.13.69-1.37,1.16-2.75,1.48-4.17h13.26c-.53,3.54-.95,7.19.26,10.36,2.43,6.34,3.65,13.42,8.83,18.5.26.26.53.53.69.85.42.79,1.59,1.53,2.11,2.27l.11.11c-.37.63-.9,1.32-1.53,1.9h0c-.58.58-1.22,1.11-1.96,1.64h0v.05c-.79.58-1.74,1.11-2.7,1.64,0-.05-.11-.16-.11-.21v.26c-.74.37-1.53.74-2.38,1.06-.16,0-.26.11-.42.16-.48-.11-1.06,0-1.74.42h0c-3.22.9-6.24.95-8.4.26-1.8-2.01-3.28-4.23-3.96-7.03-.32-1.32-.85-2.48-2.17-3.28-3.65-2.22-4.17-3.96-2.59-7.87l-.05-.05Z"/>
  <path id="left_index_toe" data-name="left index" group-name="toe" class="cls-1" d="m166.45,592.87c.16,1,.58,1.22.63,1.37.32.37.37.32.58.74s.37.85.48,1.27c.37,1.48-1,2.8-2.43,2.43-.21,0-.42-.11-.63-.16h-.05c0-.95,0-1.9-.11-2.8-.16-1-.58-1.53-1.22-1.69.16,0,.26-.11.42-.16.85-.32,1.64-.69,2.38-1.06l-.05.05Z"/>
</svg>